<?xml version="1.0" standalone="no"?>
<!DOCTYPE svg PUBLIC "-//W3C//DTD SVG 20010904//EN"
 "http://www.w3.org/TR/2001/REC-SVG-20010904/DTD/svg10.dtd">
<svg version="1.0" xmlns="http://www.w3.org/2000/svg"
 width="250.000000pt" height="250.000000pt" viewBox="0 0 250.000000 250.000000"
 preserveAspectRatio="xMidYMid meet">

<g transform="translate(0.000000,250.000000) scale(0.100000,-0.100000)"
fill="#000000" stroke="none">
<path d="M1735 2050 c-103 -40 -167 -134 -168 -244 0 -34 2 -68 4 -76 4 -16
-191 -121 -287 -154 l-51 -18 -49 48 c-147 146 -372 146 -516 1 -175 -178
-120 -479 105 -582 78 -36 184 -44 258 -20 30 10 60 22 67 28 17 13 37 -5 89
-83 23 -36 52 -77 63 -91 l20 -26 -30 -37 c-86 -110 -77 -272 22 -363 112
-103 298 -87 389 34 67 89 73 194 18 291 -63 110 -195 159 -314 117 -22 -8
-43 -11 -46 -7 -15 16 -131 187 -136 199 -3 8 8 29 25 46 40 41 81 132 88 194
3 26 1 73 -5 103 -5 30 -11 64 -13 74 -2 16 12 27 62 52 84 43 259 124 265
124 3 0 23 -18 45 -39 74 -72 157 -94 258 -70 76 18 162 100 180 171 29 113 6
203 -67 272 -79 73 -179 93 -276 56z"/>
</g>
</svg>
