<svg id="svg" version="1.1" xmlns="http://www.w3.org/2000/svg" xmlns:xlink="http://www.w3.org/1999/xlink" width="400" height="400" viewBox="0, 0, 400,400"><g id="svgg"><path id="path0" d="M296.200 59.600 C 296.064 59.820,295.623 60.000,295.221 60.000 C 294.775 60.000,294.511 60.268,294.544 60.685 C 294.626 61.687,293.347 61.806,293.089 60.819 C 292.742 59.490,284.917 59.566,284.728 60.900 C 284.619 61.668,284.321 61.818,282.700 61.922 C 281.389 62.006,280.800 62.219,280.800 62.608 C 280.800 63.581,279.297 64.112,277.912 63.629 C 275.860 62.914,274.000 63.071,274.000 63.959 C 274.000 64.831,271.478 67.200,270.549 67.200 C 270.207 67.200,269.469 67.560,268.909 68.000 C 268.350 68.440,267.661 68.800,267.379 68.800 C 267.097 68.800,266.807 68.935,266.733 69.100 C 266.660 69.265,266.150 69.717,265.600 70.104 C 262.119 72.556,261.660 72.756,259.322 72.840 L 256.957 72.926 256.976 75.023 C 257.007 78.337,255.540 79.426,252.684 78.207 C 251.744 77.807,251.922 78.735,252.952 79.612 C 253.914 80.431,250.922 85.564,249.435 85.646 C 248.117 85.719,247.802 85.786,247.768 86.000 C 247.571 87.215,246.689 88.008,246.072 87.526 C 245.477 87.060,245.459 87.076,245.919 87.664 C 246.264 88.105,246.299 88.415,246.025 88.585 C 245.596 88.850,245.655 89.678,246.190 90.919 C 246.738 92.188,246.160 95.276,245.246 95.967 C 244.598 96.457,244.376 97.138,244.266 98.979 C 244.187 100.304,243.919 101.427,243.662 101.513 C 243.374 101.609,243.200 102.677,243.200 104.353 C 243.200 107.131,242.799 108.000,241.520 108.000 C 241.124 108.000,240.800 108.270,240.800 108.600 C 240.800 108.930,241.152 109.200,241.582 109.200 C 242.578 109.200,242.870 110.707,242.692 114.917 C 242.599 117.124,242.712 118.161,243.080 118.466 C 243.769 119.038,243.738 119.788,243.000 120.400 C 242.670 120.674,242.400 121.406,242.400 122.026 C 242.400 122.739,242.072 123.384,241.511 123.777 C 240.628 124.396,240.628 124.400,241.464 124.400 C 241.970 124.400,242.390 124.081,242.516 123.600 C 242.757 122.676,243.694 122.550,244.360 123.351 C 244.939 124.050,244.272 126.000,243.453 126.000 C 243.141 126.000,242.782 126.270,242.655 126.600 C 242.335 127.435,241.326 127.349,240.308 126.400 C 239.371 125.527,238.579 125.320,239.042 126.068 C 239.235 126.380,239.116 126.453,238.686 126.288 C 238.227 126.112,238.107 126.213,238.269 126.637 C 238.395 126.965,238.341 127.204,238.149 127.169 C 236.862 126.934,236.000 127.267,236.000 128.000 C 236.000 128.444,235.733 128.800,235.400 128.800 C 235.070 128.800,234.800 129.144,234.800 129.565 C 234.800 130.001,234.069 130.873,233.100 131.591 C 231.343 132.893,230.945 132.935,227.351 132.185 C 226.380 131.982,225.928 132.111,225.322 132.761 C 224.893 133.222,223.925 133.652,223.171 133.719 C 222.167 133.807,221.815 134.021,221.856 134.520 C 221.886 134.894,221.751 135.200,221.556 135.200 C 221.360 135.200,221.200 135.632,221.200 136.160 C 221.200 137.286,219.368 138.529,217.077 138.959 C 216.265 139.112,215.600 139.408,215.600 139.618 C 215.600 139.828,215.420 140.000,215.200 140.000 C 214.980 140.000,214.800 139.749,214.800 139.443 C 214.800 138.831,213.959 138.400,212.767 138.400 C 212.267 138.400,212.000 138.678,212.000 139.200 C 212.000 139.859,211.733 140.000,210.483 140.000 C 209.028 140.000,208.947 140.072,208.496 141.758 C 207.797 144.371,203.062 146.487,202.523 144.428 C 202.405 143.977,202.092 143.743,201.772 143.866 C 200.397 144.394,197.733 141.047,197.526 138.533 C 197.406 137.075,197.331 136.999,196.000 136.985 C 193.497 136.957,192.000 135.836,192.000 133.990 C 192.000 132.480,191.538 131.930,191.000 132.800 C 190.181 134.125,185.807 130.736,185.344 128.418 C 185.136 127.381,185.002 127.278,184.327 127.639 C 183.385 128.143,182.400 127.485,182.400 126.351 C 182.400 125.475,182.250 125.437,181.248 126.063 C 180.197 126.719,179.200 126.208,179.200 125.013 C 179.200 123.992,178.658 123.660,178.200 124.400 C 177.530 125.484,173.600 123.085,173.600 121.593 C 173.600 120.997,172.552 120.897,170.196 121.267 C 167.336 121.715,166.167 121.481,165.885 120.404 C 165.706 119.720,165.343 119.600,163.451 119.600 C 162.229 119.600,160.389 119.315,159.363 118.967 C 158.337 118.618,157.175 118.418,156.780 118.521 C 155.838 118.767,153.470 117.317,153.725 116.650 C 153.834 116.366,153.671 116.133,153.362 116.133 C 153.053 116.133,152.800 116.444,152.800 116.824 C 152.800 117.587,152.027 118.000,150.600 118.000 C 149.141 118.000,148.400 117.582,148.400 116.757 C 148.400 115.214,143.877 115.747,142.952 117.400 C 142.487 118.231,142.239 118.250,137.131 117.831 C 135.459 117.695,135.277 117.760,135.410 118.450 C 135.491 118.874,135.388 119.116,135.179 118.987 C 134.971 118.858,134.800 118.493,134.800 118.176 C 134.800 117.224,132.764 117.450,132.508 118.431 C 132.231 119.488,130.610 120.140,129.600 119.600 C 128.299 118.904,126.800 119.103,126.800 119.973 C 126.800 120.398,126.440 120.860,126.000 121.000 C 125.560 121.140,125.200 121.508,125.200 121.819 C 125.200 123.279,122.431 122.945,122.354 121.476 C 122.319 120.820,122.262 120.772,122.127 121.287 C 121.964 121.908,121.183 122.190,118.600 122.561 C 118.160 122.625,117.800 122.929,117.800 123.238 C 117.800 123.547,117.395 123.858,116.900 123.928 C 116.322 124.010,116.000 124.332,116.000 124.828 C 116.000 125.462,115.714 125.600,114.400 125.600 C 113.067 125.600,112.800 125.733,112.800 126.400 C 112.800 127.008,112.533 127.200,111.688 127.200 C 111.035 127.200,110.339 127.530,110.000 128.000 C 109.683 128.440,109.103 128.800,108.712 128.800 C 108.267 128.800,108.000 129.100,108.000 129.600 C 108.000 130.323,106.915 130.657,105.168 130.470 C 105.040 130.456,104.899 131.470,104.856 132.723 C 104.761 135.424,103.773 136.615,101.930 136.246 C 101.242 136.108,100.612 136.246,100.244 136.613 C 99.921 136.936,99.464 137.200,99.229 137.200 C 98.993 137.200,98.800 137.470,98.800 137.800 C 98.800 138.130,98.980 138.400,99.200 138.400 C 99.420 138.400,99.600 138.844,99.600 139.386 C 99.600 140.584,98.585 141.191,96.526 141.225 C 95.209 141.247,95.123 141.300,95.900 141.612 C 97.278 142.166,96.476 145.600,94.969 145.600 C 94.633 145.600,94.175 146.126,93.951 146.768 C 93.727 147.410,93.287 148.035,92.972 148.155 C 92.657 148.276,92.400 148.730,92.400 149.165 C 92.400 149.599,92.066 150.190,91.657 150.477 C 91.249 150.765,90.787 151.405,90.630 151.900 C 90.368 152.730,89.750 152.950,87.771 152.919 C 87.299 152.912,87.273 153.947,87.726 154.680 C 88.017 155.152,86.497 156.507,86.012 156.207 C 85.870 156.119,85.712 156.747,85.662 157.602 C 85.590 158.813,85.750 159.252,86.385 159.592 C 87.231 160.045,87.515 161.200,86.781 161.200 C 86.550 161.200,86.107 161.785,85.796 162.500 C 85.486 163.215,85.224 163.643,85.216 163.451 C 85.185 162.764,84.000 164.113,84.000 164.835 C 84.000 165.240,83.642 165.763,83.205 165.997 C 82.186 166.543,82.249 168.400,83.287 168.400 C 83.679 168.400,84.000 168.580,84.000 168.800 C 84.000 169.020,83.640 169.200,83.200 169.200 C 82.716 169.200,82.400 169.467,82.400 169.874 C 82.400 170.245,81.995 170.987,81.500 171.524 L 80.600 172.499 81.476 172.230 C 82.703 171.853,83.130 172.908,82.838 175.600 C 82.634 177.490,82.473 177.818,81.700 177.928 C 80.480 178.101,80.365 180.400,81.576 180.400 C 82.003 180.400,82.465 180.582,82.602 180.804 C 83.037 181.508,82.376 182.800,81.581 182.800 C 80.944 182.800,80.831 183.058,80.908 184.336 C 80.979 185.522,81.146 185.835,81.639 185.706 C 82.596 185.455,83.415 187.650,82.796 188.807 C 82.456 189.443,82.447 189.807,82.763 190.123 C 83.310 190.670,83.334 192.270,82.800 192.600 C 81.969 193.114,82.344 195.136,83.296 195.272 C 84.599 195.458,84.686 196.711,83.429 197.189 C 82.175 197.666,82.016 199.174,83.187 199.481 C 84.381 199.793,84.745 202.400,83.595 202.400 C 83.419 202.400,83.483 202.849,83.738 203.397 C 83.992 203.945,84.502 204.395,84.871 204.397 C 85.661 204.401,87.118 206.132,87.452 207.465 C 87.727 208.560,87.316 210.519,86.869 210.243 C 86.700 210.138,86.300 210.218,85.981 210.420 C 85.552 210.692,85.536 210.789,85.920 210.794 C 86.207 210.797,86.704 211.430,87.026 212.200 C 87.348 212.970,87.878 213.600,88.205 213.600 C 88.632 213.600,88.800 214.051,88.800 215.200 C 88.800 216.533,88.933 216.800,89.600 216.800 C 90.117 216.800,90.418 217.083,90.450 217.600 C 90.551 219.212,91.051 220.139,91.628 219.783 C 91.832 219.656,92.000 220.013,92.000 220.576 C 92.000 221.333,92.208 221.600,92.800 221.600 C 93.530 221.600,93.903 222.879,93.647 224.500 C 93.621 224.665,93.735 224.779,93.900 224.753 C 94.722 224.623,95.127 224.876,95.329 225.649 C 95.521 226.383,95.743 226.462,96.971 226.232 C 98.419 225.960,101.092 227.864,101.261 229.287 C 101.294 229.569,101.364 229.980,101.415 230.200 C 101.466 230.420,101.528 231.005,101.554 231.500 C 101.588 232.172,101.845 232.400,102.567 232.400 C 104.367 232.400,104.800 232.796,104.800 234.443 C 104.800 236.114,105.312 236.396,106.852 235.572 C 107.845 235.041,108.963 235.811,108.582 236.764 C 107.866 238.549,108.072 239.200,109.355 239.206 C 110.291 239.211,110.452 239.306,110.003 239.589 C 109.500 239.908,109.492 240.047,109.953 240.483 C 110.374 240.881,110.541 240.888,110.679 240.514 C 110.816 240.141,111.030 240.137,111.606 240.497 C 112.211 240.874,112.508 240.826,113.149 240.246 C 114.426 239.091,118.400 241.357,118.400 243.241 C 118.400 243.957,119.020 244.204,120.354 244.017 C 120.724 243.966,120.828 244.183,120.666 244.670 C 120.454 245.306,120.480 245.318,120.869 244.763 C 121.258 244.210,121.498 244.328,122.705 245.663 C 124.229 247.350,125.167 247.612,125.474 246.437 C 125.733 245.448,126.967 245.136,127.881 245.830 C 128.277 246.129,129.410 246.381,130.400 246.390 C 131.505 246.399,132.663 246.712,133.400 247.200 C 134.165 247.707,135.277 247.996,136.467 247.997 C 138.870 248.001,139.579 248.292,140.021 249.456 C 140.359 250.343,140.573 250.400,143.410 250.357 C 145.682 250.323,146.618 250.473,147.151 250.956 C 148.035 251.755,148.557 251.787,148.265 251.024 C 147.949 250.202,150.474 249.397,151.554 249.975 C 152.686 250.581,154.000 250.500,154.000 249.824 C 154.000 249.507,154.225 249.118,154.500 248.959 C 154.775 248.801,154.867 248.819,154.703 248.999 C 154.331 249.410,155.121 250.400,155.821 250.400 C 156.109 250.400,156.402 249.995,156.472 249.500 C 156.684 248.011,158.787 247.988,158.840 249.473 C 158.879 250.591,158.882 250.592,159.156 249.606 C 159.589 248.051,161.243 247.297,162.663 248.006 C 163.288 248.319,163.935 248.640,164.100 248.720 C 164.265 248.801,164.400 248.514,164.400 248.082 C 164.400 246.833,165.398 246.277,167.094 246.580 C 171.006 247.280,171.627 247.139,172.313 245.400 C 173.047 243.537,173.421 243.214,174.851 243.206 C 175.429 243.203,176.106 242.954,176.356 242.654 C 176.998 241.879,181.674 242.018,181.936 242.819 C 182.041 243.139,182.458 243.635,182.863 243.923 C 183.268 244.210,183.600 244.635,183.600 244.867 C 183.600 245.099,184.338 246.171,185.241 247.248 C 188.200 250.783,188.867 251.983,188.586 253.265 C 188.418 254.031,188.548 254.766,188.965 255.402 C 189.314 255.936,189.600 256.828,189.600 257.386 C 189.600 258.133,189.810 258.400,190.400 258.400 C 191.022 258.400,191.200 258.667,191.200 259.597 C 191.200 260.360,191.490 260.974,192.000 261.293 C 192.440 261.568,192.800 262.109,192.800 262.496 C 192.800 262.918,193.101 263.200,193.551 263.200 C 195.784 263.200,195.523 265.657,193.217 266.348 C 192.273 266.631,191.548 267.133,191.397 267.609 C 191.259 268.044,190.798 268.400,190.373 268.400 C 189.948 268.400,189.600 268.670,189.600 269.000 C 189.600 269.330,189.358 269.600,189.062 269.600 C 188.766 269.600,188.198 269.960,187.800 270.400 C 187.161 271.106,187.152 271.200,187.724 271.200 C 189.137 271.200,189.309 272.723,187.974 273.413 C 187.127 273.852,186.811 274.252,186.976 274.681 C 187.403 275.795,186.767 277.956,185.934 278.221 C 185.303 278.421,185.202 278.698,185.411 279.651 C 185.704 280.983,185.090 282.000,183.994 282.000 C 183.604 282.000,183.175 282.289,183.039 282.642 C 182.894 283.019,182.540 283.186,182.176 283.046 C 181.836 282.916,181.663 282.979,181.791 283.186 C 182.208 283.859,181.552 285.519,180.791 285.718 C 179.525 286.049,179.755 291.927,181.054 292.420 C 182.140 292.834,182.278 293.671,181.382 294.415 C 180.972 294.755,180.844 295.288,181.000 296.000 C 181.156 296.712,181.028 297.245,180.618 297.585 C 179.841 298.230,179.844 299.560,180.624 300.592 C 180.981 301.065,181.132 301.799,180.998 302.410 C 180.874 302.975,181.066 304.138,181.424 304.996 C 182.075 306.554,181.633 307.600,180.324 307.600 C 179.627 307.600,180.049 308.632,180.900 309.008 C 181.703 309.363,181.789 309.655,181.696 311.703 C 181.605 313.724,181.683 314.000,182.348 314.000 C 183.521 314.000,184.268 316.151,183.557 317.481 C 182.872 318.761,183.031 319.940,184.036 321.026 C 184.456 321.480,184.800 322.065,184.800 322.326 C 184.800 322.587,185.132 322.800,185.538 322.800 C 186.824 322.800,187.604 324.066,187.336 325.718 C 187.104 327.145,187.139 327.200,188.268 327.200 C 190.147 327.200,191.165 329.075,189.947 330.293 C 189.129 331.111,189.880 332.000,191.387 332.000 C 192.164 332.000,192.800 332.168,192.800 332.373 C 192.800 332.578,193.166 332.862,193.613 333.004 C 195.799 333.698,197.786 337.544,196.401 338.400 C 195.753 338.800,196.172 340.000,196.960 340.000 C 197.281 340.000,197.602 339.595,197.672 339.100 C 197.921 337.347,199.433 337.734,200.014 339.700 C 200.485 341.298,200.623 341.429,201.664 341.276 C 202.597 341.139,202.800 341.256,202.800 341.931 C 202.800 343.013,203.394 343.339,204.392 342.804 C 205.360 342.286,206.800 342.899,206.800 343.828 C 206.800 344.304,206.965 344.340,207.600 344.000 C 208.786 343.365,209.888 344.135,210.443 345.986 C 210.859 347.373,212.000 348.568,212.000 347.616 C 212.000 346.569,213.244 346.002,214.326 346.556 C 214.917 346.858,216.210 347.234,217.200 347.391 C 218.190 347.548,219.399 347.930,219.886 348.238 C 220.373 348.547,221.395 348.800,222.157 348.800 C 223.664 348.800,224.971 349.777,224.636 350.652 C 224.482 351.053,224.807 351.200,225.850 351.200 C 226.938 351.200,227.324 351.011,227.484 350.400 C 227.752 349.374,228.248 349.374,228.516 350.400 C 228.867 351.744,233.200 351.584,233.200 350.227 C 233.200 349.099,234.527 348.475,235.394 349.195 C 235.813 349.543,236.162 349.541,236.821 349.189 C 237.492 348.830,238.111 348.839,239.507 349.230 C 241.172 349.696,241.374 349.673,241.961 348.949 C 243.204 347.416,245.200 347.351,245.200 348.843 C 245.200 349.384,245.486 349.600,246.200 349.600 C 246.933 349.600,247.200 349.387,247.200 348.800 C 247.200 348.360,247.380 348.000,247.600 348.000 C 247.820 348.000,248.000 347.662,248.000 347.249 C 248.000 345.736,250.816 344.852,252.139 345.949 C 252.698 346.413,255.282 346.457,254.999 345.998 C 254.704 345.521,255.442 344.848,256.407 344.716 C 257.699 344.539,258.472 344.041,258.183 343.572 C 258.056 343.368,258.413 343.200,258.976 343.200 C 259.733 343.200,260.000 342.992,260.000 342.400 C 260.000 341.827,260.283 341.586,261.000 341.550 C 261.550 341.523,262.225 341.477,262.500 341.449 C 262.791 341.420,263.007 340.815,263.017 339.999 C 263.057 336.851,264.617 335.086,266.200 336.400 C 267.237 337.261,268.088 336.566,267.880 335.027 C 267.650 333.319,268.779 331.315,270.075 331.131 C 270.847 331.022,270.980 330.796,270.876 329.762 C 270.780 328.797,270.979 328.375,271.776 327.852 C 272.339 327.483,272.806 326.871,272.813 326.491 C 272.837 325.248,274.303 323.888,275.395 324.097 C 276.284 324.267,276.361 324.182,276.135 323.284 C 275.965 322.606,276.026 322.369,276.323 322.552 C 276.750 322.817,277.390 321.040,277.673 318.800 C 277.743 318.250,278.025 317.778,278.300 317.750 C 278.575 317.723,278.890 317.655,279.000 317.600 C 279.110 317.545,279.365 317.478,279.567 317.450 C 280.169 317.368,280.546 316.834,280.609 315.974 C 280.652 315.398,280.486 315.228,280.034 315.383 C 279.608 315.530,279.654 315.405,280.176 315.001 C 280.924 314.423,280.913 314.400,279.884 314.400 C 278.572 314.400,278.057 312.939,278.864 311.509 C 280.300 308.964,281.053 308.005,281.614 308.003 C 282.075 308.001,282.229 307.551,282.229 306.200 C 282.229 304.739,282.094 304.400,281.514 304.400 C 280.429 304.400,280.527 302.165,281.625 301.878 C 282.860 301.555,282.608 298.258,281.334 298.077 C 279.603 297.830,279.895 295.430,281.699 295.082 C 282.503 294.928,282.486 294.903,281.543 294.854 C 280.178 294.784,279.900 293.985,280.482 291.809 C 280.838 290.479,280.840 289.806,280.491 289.040 C 280.203 288.408,280.175 287.939,280.415 287.791 C 281.177 287.319,280.830 285.592,279.900 285.229 C 277.492 284.287,277.100 283.396,277.404 279.549 C 277.676 276.118,277.657 276.000,276.842 276.000 C 276.174 276.000,276.000 275.753,276.000 274.803 C 276.000 274.040,275.710 273.426,275.200 273.107 C 274.760 272.832,274.400 272.291,274.400 271.904 C 274.400 271.467,274.097 271.200,273.600 271.200 C 272.933 271.200,272.800 270.933,272.800 269.600 C 272.800 268.267,272.667 268.000,272.000 268.000 C 271.290 268.000,270.980 267.374,271.155 266.294 C 271.182 266.125,270.540 266.265,269.727 266.605 C 267.788 267.415,266.400 265.720,266.400 262.540 C 266.400 262.023,266.201 261.600,265.957 261.600 C 265.714 261.600,265.614 261.339,265.737 261.020 C 265.881 260.644,265.767 260.515,265.411 260.651 C 265.109 260.767,264.764 261.118,264.643 261.431 C 264.365 262.156,262.842 262.174,262.566 261.456 C 262.451 261.157,262.289 260.392,262.206 259.756 C 262.123 259.120,262.043 258.533,262.028 258.451 C 262.012 258.369,261.737 258.520,261.416 258.786 C 260.077 259.898,256.400 257.865,256.400 256.013 C 256.400 255.068,255.571 254.772,254.875 255.468 C 254.166 256.177,253.220 256.143,252.987 255.400 C 252.381 253.459,252.381 253.459,251.907 253.933 C 251.132 254.708,249.618 254.461,248.635 253.400 C 248.125 252.850,247.279 252.397,246.754 252.394 C 245.165 252.384,244.512 251.767,245.094 250.827 C 245.486 250.194,245.486 250.061,245.094 250.184 C 242.366 251.033,234.752 250.790,233.857 249.824 C 232.776 248.657,231.544 248.504,230.768 249.439 C 230.403 249.878,229.839 250.014,228.966 249.872 C 228.266 249.758,227.538 249.808,227.347 249.981 C 226.201 251.023,224.350 250.766,223.883 249.500 C 223.540 248.570,222.376 248.605,222.128 249.552 C 221.990 250.081,221.446 250.369,220.289 250.524 C 219.264 250.662,218.402 251.067,217.999 251.601 C 217.068 252.835,214.328 252.612,214.016 251.276 C 213.897 250.768,213.620 250.379,213.400 250.410 C 212.721 250.508,211.997 251.272,212.228 251.645 C 212.349 251.840,211.627 252.000,210.624 252.000 C 209.104 252.000,208.800 251.874,208.800 251.247 C 208.800 250.830,208.443 250.400,208.000 250.284 C 207.387 250.124,207.200 249.738,207.200 248.637 C 207.200 247.085,206.828 246.905,205.031 247.588 C 204.129 247.931,203.980 247.861,203.761 246.988 C 203.625 246.445,203.257 246.000,202.944 246.000 C 202.631 246.000,202.257 245.685,202.112 245.300 C 201.967 244.915,201.388 244.127,200.825 243.549 C 199.109 241.788,198.897 241.395,198.687 239.579 C 198.576 238.616,198.286 237.762,198.043 237.681 C 197.799 237.600,197.600 236.828,197.600 235.967 C 197.600 234.667,197.464 234.400,196.800 234.400 C 196.167 234.400,195.997 234.129,195.986 233.100 C 195.978 232.385,195.732 231.368,195.440 230.841 C 194.567 229.265,196.273 226.842,198.275 226.813 C 198.979 226.802,199.136 226.585,199.075 225.700 C 199.003 224.646,199.071 224.604,200.700 224.707 C 202.562 224.825,202.777 224.465,201.941 222.631 C 201.416 221.478,202.009 220.400,203.169 220.400 C 203.695 220.400,203.805 220.109,203.682 219.053 C 203.547 217.894,203.662 217.671,204.508 217.459 C 205.301 217.260,205.454 217.018,205.300 216.209 C 205.133 215.340,206.929 212.925,207.820 212.821 C 207.919 212.809,208.177 212.800,208.392 212.800 C 208.623 212.800,208.691 212.099,208.557 211.100 C 208.317 209.299,209.564 207.313,211.343 206.663 C 212.031 206.412,212.065 206.062,211.802 202.038 L 211.518 197.685 213.026 196.660 C 213.855 196.096,214.656 195.711,214.807 195.804 C 214.957 195.897,215.116 194.719,215.161 193.186 C 215.235 190.665,215.168 190.400,214.464 190.400 C 213.962 190.400,213.595 190.034,213.427 189.366 C 213.095 188.043,213.488 186.800,214.237 186.800 C 215.075 186.800,215.701 184.936,215.186 183.974 C 214.958 183.548,214.512 183.200,214.194 183.200 C 213.555 183.200,212.974 181.490,213.386 180.823 C 213.530 180.590,213.907 180.400,214.224 180.400 C 215.084 180.400,214.919 179.724,214.000 179.484 C 213.508 179.355,213.200 178.938,213.200 178.400 C 213.200 177.862,213.508 177.445,214.000 177.316 C 215.023 177.048,215.042 176.400,214.027 176.400 C 213.045 176.400,212.660 175.219,213.190 173.827 C 213.755 172.341,213.706 171.763,212.954 171.011 C 212.359 170.416,212.359 170.308,212.954 169.651 C 213.927 168.576,213.817 166.400,212.790 166.400 C 211.705 166.400,210.992 164.575,211.576 163.293 C 212.208 161.907,212.103 161.600,211.000 161.600 C 209.716 161.600,209.508 159.410,210.755 159.014 C 211.171 158.882,212.003 158.318,212.605 157.760 C 213.781 156.671,216.774 156.451,217.961 157.367 C 218.576 157.841,218.572 157.842,219.366 157.108 C 219.668 156.829,219.834 156.465,219.734 156.300 C 219.635 156.135,220.373 156.000,221.376 156.000 C 222.933 156.000,223.200 155.883,223.200 155.200 C 223.200 154.760,223.380 154.400,223.600 154.400 C 223.820 154.400,224.000 154.085,224.000 153.700 C 224.000 152.784,226.445 150.851,227.997 150.541 C 228.668 150.406,229.312 150.142,229.429 149.952 C 229.546 149.763,230.007 149.948,230.454 150.364 C 231.563 151.398,234.024 151.395,234.295 150.360 C 234.404 149.942,234.832 149.600,235.247 149.600 C 235.733 149.600,236.000 149.317,236.000 148.800 C 236.000 148.267,236.267 148.000,236.800 148.000 C 237.247 148.000,237.600 147.733,237.600 147.396 C 237.600 145.919,239.987 144.200,242.039 144.200 C 243.591 144.200,244.000 144.337,244.000 144.857 C 244.000 145.219,244.250 145.610,244.555 145.727 C 244.932 145.872,245.050 145.714,244.924 145.233 C 244.776 144.664,244.971 144.539,245.914 144.595 C 246.743 144.644,247.076 144.487,247.044 144.060 C 247.020 143.727,247.449 143.345,247.998 143.210 C 248.554 143.073,249.059 142.619,249.139 142.182 C 249.412 140.694,252.000 138.999,252.000 140.309 C 252.000 140.479,252.815 141.506,253.812 142.591 C 255.541 144.474,255.612 144.646,255.360 146.326 L 255.096 148.088 256.767 147.806 C 258.632 147.491,260.400 148.785,260.400 150.465 C 260.400 151.188,260.569 151.257,261.782 151.030 C 263.231 150.758,264.400 152.022,264.400 153.860 C 264.400 154.404,264.507 154.453,264.880 154.080 C 265.606 153.354,266.733 153.504,267.293 154.400 C 267.587 154.871,268.226 155.200,268.847 155.200 C 269.427 155.200,270.107 155.447,270.358 155.749 C 270.825 156.312,270.571 157.600,269.993 157.600 C 269.816 157.600,269.715 157.903,269.770 158.274 C 269.931 159.374,272.722 159.351,272.879 158.247 C 273.044 157.088,274.641 156.914,275.739 157.935 C 276.213 158.375,277.275 158.860,278.100 159.012 C 278.925 159.164,279.600 159.405,279.600 159.547 C 279.600 160.295,282.161 160.860,284.382 160.602 C 287.406 160.251,288.280 160.543,288.603 162.014 C 288.886 163.300,289.600 164.024,289.600 163.024 C 289.600 162.614,289.968 162.400,290.674 162.400 C 291.265 162.400,292.165 162.009,292.674 161.530 L 293.600 160.661 294.600 161.600 C 295.150 162.117,295.600 162.362,295.600 162.146 C 295.600 161.930,295.830 161.439,296.111 161.055 C 296.745 160.187,298.000 160.577,298.000 161.643 C 298.000 162.707,298.717 162.590,298.872 161.500 C 299.051 160.241,302.128 159.945,302.760 161.126 C 302.987 161.549,303.058 162.008,302.919 162.147 C 302.780 162.286,302.877 162.400,303.133 162.400 C 303.390 162.400,303.600 162.210,303.600 161.979 C 303.600 159.925,306.921 158.149,307.673 159.800 C 307.923 160.350,308.253 160.800,308.406 160.800 C 308.809 160.800,310.800 158.322,310.800 157.821 C 310.800 157.052,314.604 155.581,315.914 155.843 C 316.904 156.041,317.167 155.933,317.387 155.242 C 317.619 154.510,319.831 153.990,320.539 154.500 C 321.057 154.874,322.006 153.336,321.812 152.436 C 321.442 150.716,326.125 147.385,326.977 148.762 C 327.433 149.500,328.800 148.725,328.800 147.730 C 328.800 147.064,328.959 146.843,329.300 147.035 C 329.700 147.261,329.700 147.210,329.300 146.779 C 327.951 145.325,330.217 142.686,331.733 143.945 C 332.125 144.270,332.451 144.251,332.967 143.873 C 333.616 143.399,333.588 143.323,332.603 142.874 C 331.102 142.190,331.551 141.373,333.348 141.518 C 335.004 141.652,335.441 141.091,334.867 139.569 C 334.421 138.385,334.947 136.800,335.787 136.800 C 336.220 136.800,336.400 136.392,336.400 135.414 C 336.400 134.454,336.637 133.901,337.172 133.615 C 337.597 133.388,338.002 132.798,338.072 132.305 C 338.207 131.359,339.522 130.827,339.963 131.540 C 340.418 132.276,341.321 131.331,341.398 130.038 C 341.454 129.084,341.306 128.800,340.750 128.800 C 339.122 128.800,338.981 125.677,340.582 125.062 C 341.088 124.868,341.209 124.292,341.151 122.348 C 341.097 120.557,341.240 119.759,341.673 119.440 C 342.002 119.198,342.195 118.778,342.104 118.506 C 341.892 117.878,343.503 115.584,344.069 115.707 C 344.303 115.758,344.547 115.485,344.611 115.100 C 344.689 114.640,344.472 114.400,343.979 114.400 C 343.331 114.400,342.400 113.346,342.400 112.613 C 342.400 112.481,342.895 111.874,343.500 111.263 C 344.864 109.887,345.037 109.200,344.019 109.200 C 342.180 109.200,341.532 105.495,343.260 104.856 C 343.840 104.642,343.978 104.434,343.668 104.242 C 343.411 104.083,343.200 103.616,343.200 103.204 C 343.200 102.732,342.867 102.408,342.300 102.328 C 341.805 102.258,341.400 101.930,341.400 101.600 C 341.400 101.270,341.805 100.942,342.300 100.872 C 343.571 100.692,343.421 99.679,342.100 99.527 C 340.108 99.297,339.041 95.944,340.813 95.481 C 342.498 95.040,341.662 92.302,339.695 91.819 C 337.924 91.384,336.400 89.635,336.400 88.039 C 336.400 87.632,336.120 87.065,335.777 86.781 C 335.434 86.496,334.916 85.694,334.625 84.998 C 334.334 84.301,333.448 83.102,332.656 82.333 C 331.397 81.110,331.147 80.536,330.674 77.767 C 330.099 74.406,330.190 74.497,327.800 74.874 C 327.186 74.971,326.971 74.744,326.873 73.900 C 326.804 73.295,326.508 72.800,326.216 72.800 C 325.924 72.800,325.582 72.530,325.455 72.200 C 325.313 71.829,324.705 71.600,323.864 71.600 C 322.589 71.600,322.486 71.500,322.251 70.032 C 322.034 68.672,321.831 68.427,320.723 68.183 C 320.020 68.029,319.186 67.643,318.868 67.326 C 318.461 66.918,318.167 66.873,317.866 67.174 C 316.451 68.589,312.701 66.216,313.165 64.200 C 313.216 63.980,313.028 64.025,312.749 64.300 C 312.114 64.924,311.052 64.963,311.432 64.348 C 311.633 64.022,310.995 63.950,309.156 64.091 C 307.021 64.254,306.289 64.131,304.713 63.343 C 303.602 62.788,302.114 62.400,301.093 62.400 C 299.314 62.400,298.400 61.879,298.400 60.864 C 298.400 59.829,296.672 58.836,296.200 59.600 M299.600 69.014 C 311.227 71.347,315.843 73.774,323.553 81.608 C 328.659 86.796,330.453 89.338,331.877 93.400 C 332.340 94.720,333.082 96.700,333.526 97.800 C 337.579 107.843,335.671 124.075,329.231 134.342 C 325.448 140.374,313.598 150.681,310.333 150.780 C 309.966 150.791,308.827 151.160,307.800 151.600 C 303.749 153.336,299.633 154.110,294.200 154.156 C 282.810 154.252,278.994 153.310,270.514 148.304 C 266.054 145.671,258.082 138.529,257.185 136.363 C 256.839 135.529,256.427 135.200,255.729 135.200 C 254.744 135.200,248.596 138.160,248.178 138.835 C 248.054 139.036,247.428 139.200,246.786 139.200 C 246.145 139.200,244.401 139.852,242.910 140.648 C 241.420 141.445,238.760 142.863,237.000 143.800 C 235.240 144.736,233.260 145.602,232.600 145.724 C 231.940 145.845,230.091 146.666,228.492 147.546 C 226.893 148.427,224.553 149.447,223.294 149.814 C 222.034 150.180,219.833 151.153,218.402 151.976 C 213.045 155.056,208.933 157.120,206.800 157.799 C 202.604 159.136,202.015 160.530,203.929 164.600 C 204.729 166.302,205.205 168.222,205.565 171.200 C 205.845 173.510,206.340 176.465,206.665 177.767 C 208.741 186.075,204.942 203.930,199.087 213.386 C 195.488 219.199,194.579 220.445,191.048 224.400 C 190.753 224.730,189.857 225.503,189.056 226.117 C 186.621 227.985,187.966 231.423,193.000 236.200 C 194.160 237.300,195.303 238.794,195.540 239.520 C 195.778 240.246,196.348 241.326,196.807 241.920 C 197.266 242.514,199.411 245.700,201.574 249.000 C 203.737 252.300,205.912 255.360,206.407 255.800 C 206.902 256.240,208.008 257.545,208.866 258.700 C 210.715 261.191,211.703 261.369,214.840 259.780 C 222.268 256.016,237.443 255.624,245.000 259.000 C 255.870 263.857,256.842 264.508,262.594 270.796 C 268.015 276.722,270.837 282.061,273.271 291.000 C 274.771 296.507,273.536 309.404,270.826 316.532 C 267.945 324.110,257.422 335.640,251.366 337.854 C 250.945 338.009,249.848 338.644,248.928 339.267 C 248.008 339.890,246.814 340.400,246.274 340.400 C 245.734 340.400,244.416 340.651,243.346 340.958 C 238.877 342.241,237.145 342.508,232.200 342.679 C 227.001 342.859,226.693 342.823,218.600 341.049 C 212.009 339.606,201.440 332.651,197.588 327.223 C 193.154 320.975,190.000 315.372,190.000 313.744 C 190.000 313.241,189.653 311.949,189.228 310.872 C 186.467 303.866,187.521 288.009,191.041 283.600 C 191.305 283.270,191.710 282.301,191.943 281.447 C 192.520 279.321,195.750 274.443,199.500 270.030 C 200.655 268.671,201.600 267.314,201.600 267.016 C 201.600 266.139,196.521 258.775,194.417 256.600 C 193.353 255.500,192.094 253.880,191.620 253.000 C 191.146 252.120,190.093 250.383,189.279 249.141 C 188.466 247.899,187.260 246.046,186.600 245.024 C 185.940 244.002,184.680 242.200,183.800 241.020 C 182.920 239.839,181.713 238.052,181.117 237.048 C 179.636 234.554,178.593 234.346,175.454 235.923 C 171.753 237.782,166.498 239.808,162.371 240.969 C 159.057 241.901,148.642 242.872,147.326 242.372 C 146.740 242.149,145.781 242.072,145.194 242.201 C 142.767 242.734,127.534 239.328,124.600 237.597 C 123.940 237.207,121.420 235.882,119.000 234.652 C 113.365 231.788,110.516 229.518,104.748 223.295 C 100.386 218.588,93.587 207.526,92.969 204.129 C 92.816 203.288,92.265 201.751,91.745 200.713 C 91.225 199.676,90.800 198.179,90.800 197.387 C 90.800 196.595,90.619 195.609,90.397 195.194 C 88.053 190.814,89.389 172.003,92.599 164.200 C 93.323 162.440,94.036 160.427,94.183 159.728 C 94.331 159.028,94.710 158.241,95.026 157.979 C 95.342 157.717,95.600 157.331,95.600 157.121 C 95.600 155.787,103.619 144.008,105.198 143.025 C 105.529 142.818,107.060 141.460,108.600 140.007 C 112.603 136.229,123.730 129.336,127.400 128.360 C 128.280 128.126,129.900 127.591,131.000 127.171 C 132.797 126.486,136.926 125.686,143.200 124.806 C 145.852 124.434,155.749 124.970,157.326 125.571 C 157.945 125.807,159.262 126.000,160.252 126.000 C 161.242 126.000,162.895 126.341,163.926 126.757 C 164.957 127.173,167.330 128.000,169.200 128.594 C 171.070 129.189,173.063 130.000,173.628 130.396 C 174.193 130.793,175.921 131.754,177.466 132.533 C 179.012 133.311,180.800 134.370,181.438 134.885 C 182.077 135.401,183.338 136.318,184.241 136.924 C 186.428 138.394,195.073 146.969,195.397 147.992 C 195.616 148.681,196.018 148.807,198.127 148.844 C 201.857 148.911,202.511 148.814,203.608 148.032 C 204.162 147.636,205.062 147.174,205.608 147.004 C 206.153 146.834,207.050 146.380,207.600 145.994 C 208.150 145.609,209.770 144.995,211.200 144.631 C 212.630 144.267,214.970 143.284,216.400 142.446 C 220.071 140.298,223.545 138.570,225.317 138.013 C 226.152 137.750,229.482 136.112,232.717 134.372 C 235.953 132.632,238.960 131.206,239.400 131.204 C 239.840 131.202,241.190 130.664,242.400 130.009 C 244.045 129.118,249.746 126.214,250.699 125.781 C 250.961 125.661,250.828 123.542,250.410 121.200 C 248.873 112.576,249.431 101.948,251.623 98.112 C 252.028 97.403,252.483 96.143,252.633 95.312 C 253.831 88.694,267.045 74.534,274.060 72.351 C 275.331 71.955,277.052 71.285,277.885 70.862 C 282.896 68.316,292.183 67.525,299.600 69.014 M340.000 90.400 C 340.000 91.147,340.107 91.253,340.480 90.880 C 340.853 90.507,340.853 90.293,340.480 89.920 C 340.107 89.547,340.000 89.653,340.000 90.400 M83.405 161.992 C 83.243 162.255,83.290 162.650,83.510 162.870 C 84.031 163.391,84.445 162.721,84.024 162.038 C 83.778 161.640,83.629 161.629,83.405 161.992 M80.178 187.635 C 80.031 187.874,80.110 188.270,80.355 188.515 C 80.682 188.842,80.800 188.726,80.800 188.080 C 80.800 187.114,80.592 186.965,80.178 187.635 M157.120 250.880 C 157.493 251.253,157.707 251.253,158.080 250.880 C 158.453 250.507,158.347 250.400,157.600 250.400 C 156.853 250.400,156.747 250.507,157.120 250.880 " stroke="none" fill="#e4e8ed" fill-rule="evenodd"></path><path id="path1" d="M298.880 58.880 C 298.616 59.144,298.405 59.549,298.412 59.780 C 298.419 60.011,298.608 59.885,298.832 59.500 C 299.056 59.115,299.582 58.800,300.000 58.800 C 300.418 58.800,300.944 59.115,301.168 59.500 C 301.392 59.885,301.581 60.011,301.588 59.780 C 301.606 59.159,300.732 58.400,300.000 58.400 C 299.648 58.400,299.144 58.616,298.880 58.880 M292.800 59.400 C 292.375 59.912,292.492 60.000,293.600 60.000 C 294.708 60.000,294.825 59.912,294.400 59.400 C 294.126 59.070,293.766 58.800,293.600 58.800 C 293.434 58.800,293.074 59.070,292.800 59.400 M306.700 60.878 C 307.183 61.361,307.681 61.652,307.808 61.525 C 308.107 61.226,306.881 60.000,306.283 60.000 C 306.029 60.000,306.217 60.395,306.700 60.878 M266.538 65.417 C 266.408 65.757,266.413 66.147,266.551 66.284 C 266.688 66.421,266.800 66.247,266.800 65.896 C 266.800 65.545,267.115 65.176,267.500 65.076 C 268.156 64.904,268.155 64.890,267.487 64.846 C 267.096 64.821,266.668 65.078,266.538 65.417 M287.933 69.674 C 286.754 69.824,285.286 70.139,284.669 70.374 C 284.052 70.608,283.102 70.800,282.557 70.800 C 282.012 70.800,280.403 71.344,278.981 72.009 C 277.560 72.673,275.542 73.442,274.498 73.716 C 272.378 74.274,270.872 75.154,268.800 77.045 C 266.300 79.328,263.286 81.904,262.939 82.054 C 262.752 82.134,261.886 83.100,261.014 84.200 C 260.142 85.300,259.195 86.345,258.910 86.522 C 258.625 86.699,258.128 87.419,257.804 88.122 C 257.194 89.448,256.741 90.231,255.502 92.102 C 255.101 92.709,254.401 94.419,253.946 95.902 C 253.492 97.386,252.853 98.901,252.527 99.268 C 252.143 99.700,251.802 101.465,251.560 104.268 C 251.354 106.651,251.088 108.912,250.968 109.294 C 250.615 110.418,251.650 121.278,252.250 122.749 C 252.973 124.522,252.946 125.781,252.171 126.424 C 250.740 127.611,240.543 132.636,238.816 133.005 C 238.054 133.168,236.974 133.600,236.416 133.966 C 233.511 135.870,226.032 139.596,225.054 139.627 C 224.200 139.653,223.312 140.116,217.182 143.733 C 215.380 144.796,213.252 145.760,212.453 145.875 C 211.654 145.990,209.020 147.046,206.600 148.221 C 202.615 150.156,201.888 150.375,198.899 150.541 L 195.598 150.725 194.499 149.133 C 192.076 145.625,185.556 139.567,180.800 136.405 C 179.150 135.308,177.593 134.239,177.341 134.028 C 177.088 133.817,176.278 133.366,175.541 133.024 C 174.803 132.683,173.660 132.075,173.000 131.673 C 172.340 131.272,169.910 130.338,167.600 129.599 C 165.290 128.860,163.216 128.120,162.991 127.954 C 162.399 127.518,153.900 126.397,149.748 126.206 C 144.648 125.972,136.520 127.010,132.353 128.427 C 130.456 129.072,128.617 129.600,128.264 129.600 C 127.717 129.600,124.340 131.208,122.400 132.393 C 122.070 132.595,120.628 133.444,119.195 134.280 C 114.278 137.150,110.526 139.802,109.564 141.088 C 109.034 141.796,107.836 142.932,106.901 143.612 C 105.967 144.292,105.001 145.242,104.754 145.724 C 104.507 146.206,103.677 147.258,102.908 148.062 C 102.140 148.866,101.306 149.897,101.056 150.352 C 100.805 150.807,99.463 153.119,98.074 155.490 C 96.685 157.860,95.292 160.773,94.980 161.962 C 94.667 163.151,94.139 164.426,93.806 164.794 C 93.473 165.162,93.200 165.768,93.200 166.141 C 93.200 166.515,92.853 167.806,92.430 169.011 C 92.006 170.216,91.548 172.866,91.411 174.901 C 91.274 176.935,90.976 179.332,90.749 180.227 C 90.324 181.905,91.192 193.121,91.952 195.772 C 92.146 196.447,92.759 198.440,93.314 200.200 C 93.870 201.960,94.431 203.881,94.562 204.470 C 94.783 205.462,98.234 211.662,101.422 216.794 C 102.172 218.001,104.166 220.465,105.855 222.271 C 107.543 224.077,109.031 225.719,109.162 225.920 C 110.086 227.341,118.235 233.200,119.287 233.200 C 119.620 233.200,120.321 233.529,120.846 233.932 C 123.488 235.959,130.941 238.665,136.540 239.630 C 137.607 239.814,139.064 240.157,139.778 240.393 C 144.975 242.108,161.116 240.507,167.355 237.658 C 168.871 236.966,170.601 236.400,171.201 236.400 C 171.801 236.400,172.723 236.085,173.251 235.700 C 177.166 232.841,179.305 232.575,181.271 234.705 C 182.472 236.005,190.400 247.864,190.400 248.359 C 190.400 248.548,190.661 248.919,190.980 249.184 C 191.299 249.448,192.134 250.685,192.836 251.933 C 193.537 253.180,195.031 255.198,196.156 256.419 C 199.060 259.570,203.200 265.837,203.200 267.083 C 203.200 268.053,202.526 268.938,198.351 273.443 C 197.718 274.126,197.200 274.869,197.200 275.094 C 197.200 275.318,196.915 275.738,196.567 276.027 C 195.936 276.551,195.007 278.147,193.788 280.800 C 193.435 281.570,192.618 283.314,191.973 284.675 C 191.328 286.036,190.800 287.403,190.800 287.712 C 190.800 288.022,190.426 289.338,189.970 290.637 C 188.768 294.057,189.012 306.803,190.332 309.600 C 190.800 310.590,191.186 311.922,191.191 312.559 C 191.200 313.760,193.841 318.959,196.391 322.800 C 199.355 327.263,200.609 329.004,200.971 329.157 C 201.175 329.243,202.075 329.982,202.971 330.798 C 208.392 335.736,214.879 338.867,223.400 340.657 C 224.940 340.980,226.920 341.402,227.800 341.593 C 230.213 342.119,238.427 341.008,242.902 339.550 C 244.167 339.137,245.732 338.800,246.378 338.800 C 247.024 338.800,247.655 338.635,247.780 338.432 C 247.905 338.230,249.131 337.412,250.504 336.614 C 257.384 332.616,257.425 332.582,263.613 325.432 C 265.125 323.685,267.200 320.720,267.200 320.305 C 267.200 320.167,267.750 319.169,268.422 318.088 C 269.690 316.047,270.192 314.411,271.824 307.000 C 273.109 301.161,272.704 292.095,271.011 288.821 C 270.688 288.196,270.300 286.900,270.151 285.942 C 269.904 284.365,268.871 282.369,265.066 276.120 C 263.010 272.743,253.985 264.000,252.555 264.000 C 252.248 264.000,250.783 263.391,249.298 262.646 C 244.201 260.088,242.782 259.537,240.435 259.205 C 239.141 259.022,237.671 258.652,237.167 258.382 C 236.011 257.764,223.490 258.061,222.689 258.726 C 222.398 258.968,221.359 259.279,220.380 259.418 C 219.401 259.558,217.306 260.285,215.725 261.036 C 211.366 263.104,210.052 262.964,208.244 260.240 C 207.455 259.052,206.265 257.621,205.600 257.061 C 204.602 256.222,196.800 245.105,196.800 244.523 C 196.800 244.426,196.369 243.774,195.843 243.073 C 195.316 242.373,194.518 241.105,194.069 240.255 C 193.620 239.406,192.356 237.756,191.261 236.589 C 185.648 230.613,185.056 227.850,188.652 224.409 C 193.675 219.602,196.781 215.284,199.733 209.000 C 203.008 202.028,203.245 201.297,204.986 192.800 C 205.827 188.697,206.096 180.156,205.426 178.818 C 204.779 177.525,204.127 173.701,204.026 170.600 C 203.969 168.844,203.580 167.382,202.574 165.150 C 200.297 160.095,201.886 156.485,206.435 156.377 C 206.966 156.364,208.300 155.843,209.400 155.218 C 210.500 154.593,212.998 153.241,214.952 152.215 C 216.905 151.188,218.981 149.994,219.565 149.563 C 220.149 149.131,221.340 148.665,222.213 148.526 C 223.086 148.388,225.600 147.334,227.800 146.185 C 230.000 145.035,232.520 143.968,233.400 143.814 C 234.280 143.659,235.292 143.270,235.649 142.950 C 236.720 141.990,245.635 137.600,246.514 137.600 C 246.963 137.600,248.727 136.781,250.434 135.780 C 254.476 133.411,258.000 132.973,258.000 134.841 C 258.000 135.228,259.887 137.963,260.456 138.400 C 261.196 138.970,265.540 142.758,266.647 143.800 C 268.126 145.193,268.281 145.297,272.852 147.977 C 274.750 149.089,276.663 150.000,277.103 150.000 C 277.542 150.000,278.119 150.261,278.383 150.580 C 280.697 153.367,297.032 153.708,304.600 151.126 C 305.260 150.901,306.918 150.400,308.283 150.014 C 311.390 149.135,315.650 146.628,318.304 144.120 C 325.189 137.611,327.600 135.031,327.600 134.172 C 327.600 133.889,327.831 133.419,328.112 133.129 C 331.272 129.870,334.248 118.382,334.158 109.800 C 334.110 105.327,332.944 99.178,331.801 97.373 C 331.513 96.918,330.903 95.289,330.445 93.751 C 328.539 87.353,319.077 77.695,311.160 74.068 C 303.869 70.728,294.119 68.883,287.933 69.674 M252.138 76.617 C 251.791 77.521,252.102 77.569,252.900 76.733 C 253.492 76.113,253.506 76.000,252.987 76.000 C 252.651 76.000,252.268 76.278,252.138 76.617 M239.983 110.620 C 239.558 111.132,239.584 111.356,240.134 111.906 C 240.755 112.527,240.800 112.485,240.800 111.286 C 240.800 109.827,240.705 109.750,239.983 110.620 M140.800 115.400 C 140.375 115.912,140.492 116.000,141.600 116.000 C 142.708 116.000,142.825 115.912,142.400 115.400 C 142.126 115.070,141.766 114.800,141.600 114.800 C 141.434 114.800,141.074 115.070,140.800 115.400 M177.256 121.566 C 177.775 121.987,178.271 122.261,178.357 122.175 C 178.650 121.885,177.506 120.800,176.907 120.800 C 176.501 120.800,176.612 121.044,177.256 121.566 M219.200 134.600 C 218.775 135.112,218.892 135.200,220.000 135.200 C 221.108 135.200,221.225 135.112,220.800 134.600 C 220.526 134.270,220.166 134.000,220.000 134.000 C 219.834 134.000,219.474 134.270,219.200 134.600 M337.300 137.197 C 337.685 137.440,338.000 137.982,338.000 138.400 C 338.000 138.818,337.685 139.360,337.300 139.603 C 336.894 139.860,336.840 139.985,337.171 139.899 C 337.486 139.819,337.935 139.448,338.169 139.076 C 338.656 138.305,338.124 137.146,337.171 136.901 C 336.840 136.815,336.894 136.940,337.300 137.197 M95.338 139.017 C 95.208 139.357,95.213 139.747,95.351 139.884 C 95.488 140.021,95.600 139.847,95.600 139.496 C 95.600 139.145,95.915 138.776,96.300 138.676 C 96.956 138.504,96.955 138.490,96.287 138.446 C 95.896 138.421,95.468 138.678,95.338 139.017 M332.700 144.676 C 332.315 144.776,332.000 145.115,332.000 145.429 C 332.000 146.261,332.704 146.127,333.200 145.200 C 333.435 144.760,333.577 144.421,333.514 144.446 C 333.451 144.472,333.085 144.575,332.700 144.676 M327.900 150.467 C 327.308 151.087,327.294 151.200,327.813 151.200 C 328.149 151.200,328.532 150.922,328.662 150.583 C 329.009 149.679,328.698 149.631,327.900 150.467 M309.728 159.800 C 309.833 160.809,312.560 160.997,312.633 160.000 C 312.658 159.655,312.606 159.613,312.509 159.900 C 312.246 160.683,310.094 160.521,309.852 159.700 C 309.692 159.156,309.664 159.178,309.728 159.800 M298.311 163.098 C 298.129 163.794,298.299 163.882,299.746 163.844 C 301.063 163.809,301.412 163.642,301.509 163.000 C 301.619 162.269,301.592 162.260,301.195 162.900 C 300.650 163.778,299.356 163.808,298.878 162.954 C 298.561 162.386,298.492 162.404,298.311 163.098 M215.700 174.005 C 216.553 174.535,216.616 175.839,215.810 176.290 C 215.311 176.569,215.336 176.692,215.967 177.087 C 216.659 177.518,216.710 177.414,216.657 175.682 C 216.610 174.141,216.459 173.789,215.800 173.691 C 215.069 173.581,215.060 173.608,215.700 174.005 M79.787 180.814 C 79.068 181.608,79.074 181.650,80.010 182.514 L 80.970 183.400 80.223 182.500 C 79.502 181.631,79.501 181.572,80.200 180.800 C 80.598 180.360,80.834 180.000,80.724 180.000 C 80.614 180.000,80.192 180.366,79.787 180.814 M214.229 199.158 C 213.540 199.428,213.529 199.487,214.129 199.717 C 215.008 200.055,214.990 201.442,214.100 201.995 C 213.460 202.392,213.469 202.419,214.200 202.309 C 214.847 202.211,215.008 201.863,215.043 200.494 C 215.067 199.562,215.067 198.813,215.043 198.828 C 215.019 198.844,214.653 198.992,214.229 199.158 M210.800 209.800 C 211.197 210.279,211.197 210.521,210.800 211.000 C 210.392 211.491,210.420 211.600,210.951 211.600 C 211.405 211.600,211.600 211.240,211.600 210.400 C 211.600 209.560,211.405 209.200,210.951 209.200 C 210.420 209.200,210.392 209.309,210.800 209.800 M205.260 221.271 C 205.218 222.302,204.991 222.796,204.500 222.924 C 203.844 223.096,203.845 223.110,204.513 223.154 C 205.380 223.210,205.716 222.445,205.490 220.934 C 205.344 219.961,205.311 220.009,205.260 221.271 M99.520 231.680 C 99.893 232.053,100.107 232.053,100.480 231.680 C 100.853 231.307,100.747 231.200,100.000 231.200 C 99.253 231.200,99.147 231.307,99.520 231.680 M106.800 237.751 C 106.800 237.834,107.070 238.126,107.400 238.400 C 107.891 238.808,108.000 238.780,108.000 238.249 C 108.000 237.892,107.730 237.600,107.400 237.600 C 107.070 237.600,106.800 237.668,106.800 237.751 M112.891 243.000 C 112.988 243.642,113.337 243.809,114.654 243.844 C 116.101 243.882,116.271 243.794,116.089 243.098 C 115.908 242.404,115.839 242.386,115.522 242.954 C 115.044 243.808,113.750 243.778,113.205 242.900 C 112.808 242.260,112.781 242.269,112.891 243.000 M163.936 249.444 C 163.726 250.207,163.861 250.283,165.346 250.244 C 166.498 250.213,167.001 250.021,167.033 249.600 C 167.058 249.255,167.006 249.213,166.909 249.500 C 166.644 250.290,164.484 250.124,164.313 249.300 C 164.190 248.708,164.132 248.730,163.936 249.444 M183.600 251.000 C 183.600 251.330,183.892 251.600,184.249 251.600 C 184.780 251.600,184.808 251.491,184.400 251.000 C 184.126 250.670,183.834 250.400,183.751 250.400 C 183.668 250.400,183.600 250.670,183.600 251.000 M254.400 253.000 C 255.294 253.951,255.600 254.171,255.600 253.861 C 255.600 253.553,254.084 252.000,253.783 252.000 C 253.606 252.000,253.883 252.450,254.400 253.000 M259.884 256.000 C 259.999 256.440,260.370 256.800,260.709 256.800 C 261.226 256.800,261.209 256.673,260.600 256.000 C 260.202 255.560,259.831 255.200,259.775 255.200 C 259.720 255.200,259.769 255.560,259.884 256.000 M282.400 292.413 C 282.400 292.626,282.580 292.800,282.800 292.800 C 283.380 292.800,283.292 294.300,282.700 294.516 C 282.357 294.642,282.482 294.970,283.100 295.565 C 283.595 296.041,284.000 296.253,284.000 296.035 C 284.000 295.818,283.685 295.456,283.300 295.232 C 282.915 295.008,282.806 294.819,283.057 294.812 C 283.639 294.797,284.041 293.773,283.757 293.031 C 283.497 292.355,282.400 291.855,282.400 292.413 M282.400 302.013 C 282.400 302.226,282.580 302.400,282.800 302.400 C 283.020 302.400,283.200 302.760,283.200 303.200 C 283.200 303.640,283.020 304.000,282.800 304.000 C 282.580 304.000,282.400 304.174,282.400 304.387 C 282.400 304.945,283.497 304.445,283.757 303.769 C 283.877 303.456,283.877 302.944,283.757 302.631 C 283.497 301.955,282.400 301.455,282.400 302.013 M186.556 327.771 C 186.186 328.735,186.566 330.189,187.200 330.234 C 187.546 330.259,187.588 330.206,187.300 330.109 C 186.514 329.845,186.678 327.691,187.500 327.476 C 188.156 327.304,188.155 327.290,187.487 327.246 C 187.096 327.221,186.676 327.457,186.556 327.771 M207.200 347.013 C 207.200 347.349,207.478 347.732,207.817 347.862 C 208.721 348.209,208.769 347.898,207.933 347.100 C 207.313 346.508,207.200 346.494,207.200 347.013 M252.000 347.049 C 252.000 347.580,252.109 347.608,252.600 347.200 C 252.930 346.926,253.200 346.634,253.200 346.551 C 253.200 346.468,252.930 346.400,252.600 346.400 C 252.270 346.400,252.000 346.692,252.000 347.049 M247.291 348.600 C 247.384 349.223,247.718 349.400,248.800 349.400 C 249.882 349.400,250.216 349.223,250.309 348.600 C 250.419 347.869,250.392 347.860,249.995 348.500 C 249.756 348.885,249.218 349.200,248.800 349.200 C 248.382 349.200,247.844 348.885,247.605 348.500 C 247.208 347.860,247.181 347.869,247.291 348.600 M227.100 352.004 L 228.000 352.978 228.900 352.004 L 229.800 351.030 228.900 351.777 C 228.021 352.506,227.979 352.506,227.100 351.777 L 226.200 351.030 227.100 352.004 M235.639 352.116 C 235.264 352.737,235.254 352.860,235.604 352.529 C 235.985 352.168,236.279 352.167,236.853 352.526 C 237.687 353.047,238.814 352.576,239.135 351.571 C 239.258 351.185,239.039 351.247,238.458 351.762 C 237.666 352.466,237.545 352.475,236.886 351.878 C 236.224 351.279,236.134 351.296,235.639 352.116 " stroke="none" fill="#044cac" fill-rule="evenodd"></path><path id="path2" d="M286.800 68.419 C 283.943 68.754,279.799 69.889,277.885 70.862 C 277.052 71.285,275.331 71.955,274.060 72.351 C 267.045 74.534,253.831 88.694,252.633 95.312 C 252.483 96.143,252.028 97.403,251.623 98.112 C 249.431 101.948,248.873 112.576,250.410 121.200 C 250.828 123.542,250.961 125.661,250.699 125.781 C 249.746 126.214,244.045 129.118,242.400 130.009 C 241.190 130.664,239.840 131.202,239.400 131.204 C 238.960 131.206,235.953 132.632,232.717 134.372 C 229.482 136.112,226.152 137.750,225.317 138.013 C 223.545 138.570,220.071 140.298,216.400 142.446 C 214.970 143.284,212.630 144.267,211.200 144.631 C 209.770 144.995,208.150 145.609,207.600 145.994 C 207.050 146.380,206.153 146.834,205.608 147.004 C 205.062 147.174,204.162 147.636,203.608 148.032 C 202.511 148.814,201.857 148.911,198.127 148.844 C 196.018 148.807,195.616 148.681,195.397 147.992 C 195.073 146.969,186.428 138.394,184.241 136.924 C 183.338 136.318,182.077 135.401,181.438 134.885 C 180.800 134.370,179.012 133.311,177.466 132.533 C 175.921 131.754,174.193 130.793,173.628 130.396 C 173.063 130.000,171.070 129.189,169.200 128.594 C 167.330 128.000,164.957 127.173,163.926 126.757 C 162.895 126.341,161.242 126.000,160.252 126.000 C 159.262 126.000,157.945 125.807,157.326 125.571 C 155.749 124.970,145.852 124.434,143.200 124.806 C 136.926 125.686,132.797 126.486,131.000 127.171 C 129.900 127.591,128.280 128.126,127.400 128.360 C 123.730 129.336,112.603 136.229,108.600 140.007 C 107.060 141.460,105.529 142.818,105.198 143.025 C 103.619 144.008,95.600 155.787,95.600 157.121 C 95.600 157.331,95.342 157.717,95.026 157.979 C 94.710 158.241,94.331 159.028,94.183 159.728 C 94.036 160.427,93.323 162.440,92.599 164.200 C 89.389 172.003,88.053 190.814,90.397 195.194 C 90.619 195.609,90.800 196.595,90.800 197.387 C 90.800 198.179,91.225 199.676,91.745 200.713 C 92.265 201.751,92.816 203.288,92.969 204.129 C 93.587 207.526,100.386 218.588,104.748 223.295 C 110.516 229.518,113.365 231.788,119.000 234.652 C 121.420 235.882,123.940 237.207,124.600 237.597 C 127.534 239.328,142.767 242.734,145.194 242.201 C 145.781 242.072,146.740 242.149,147.326 242.372 C 148.642 242.872,159.057 241.901,162.371 240.969 C 166.498 239.808,171.753 237.782,175.454 235.923 C 178.593 234.346,179.636 234.554,181.117 237.048 C 181.713 238.052,182.920 239.839,183.800 241.020 C 184.680 242.200,185.940 244.002,186.600 245.024 C 187.260 246.046,188.466 247.899,189.279 249.141 C 190.093 250.383,191.146 252.120,191.620 253.000 C 192.094 253.880,193.353 255.500,194.417 256.600 C 196.521 258.775,201.600 266.139,201.600 267.016 C 201.600 267.314,200.655 268.671,199.500 270.030 C 195.750 274.443,192.520 279.321,191.943 281.447 C 191.710 282.301,191.305 283.270,191.041 283.600 C 187.521 288.009,186.467 303.866,189.228 310.872 C 189.653 311.949,190.000 313.241,190.000 313.744 C 190.000 315.372,193.154 320.975,197.588 327.223 C 201.440 332.651,212.009 339.606,218.600 341.049 C 226.693 342.823,227.001 342.859,232.200 342.679 C 237.145 342.508,238.877 342.241,243.346 340.958 C 244.416 340.651,245.734 340.400,246.274 340.400 C 246.814 340.400,248.008 339.890,248.928 339.267 C 249.848 338.644,250.945 338.009,251.366 337.854 C 254.846 336.582,259.905 332.218,265.229 325.897 C 271.958 317.908,275.919 300.721,273.271 291.000 C 270.837 282.061,268.015 276.722,262.594 270.796 C 256.842 264.508,255.870 263.857,245.000 259.000 C 237.443 255.624,222.268 256.016,214.840 259.780 C 211.703 261.369,210.715 261.191,208.866 258.700 C 208.008 257.545,206.902 256.240,206.407 255.800 C 205.912 255.360,203.737 252.300,201.574 249.000 C 199.411 245.700,197.266 242.514,196.807 241.920 C 196.348 241.326,195.778 240.246,195.540 239.520 C 195.303 238.794,194.160 237.300,193.000 236.200 C 187.966 231.423,186.621 227.985,189.056 226.117 C 189.857 225.503,190.753 224.730,191.048 224.400 C 194.579 220.445,195.488 219.199,199.087 213.386 C 204.942 203.930,208.741 186.075,206.665 177.767 C 206.340 176.465,205.845 173.510,205.565 171.200 C 205.205 168.222,204.729 166.302,203.929 164.600 C 202.015 160.530,202.604 159.136,206.800 157.799 C 208.933 157.120,213.045 155.056,218.402 151.976 C 219.833 151.153,222.034 150.180,223.294 149.814 C 224.553 149.447,226.893 148.427,228.492 147.546 C 230.091 146.666,231.940 145.845,232.600 145.724 C 233.260 145.602,235.240 144.736,237.000 143.800 C 238.760 142.863,241.420 141.445,242.910 140.648 C 244.401 139.852,246.145 139.200,246.786 139.200 C 247.428 139.200,248.054 139.036,248.178 138.835 C 248.596 138.160,254.744 135.200,255.729 135.200 C 256.427 135.200,256.839 135.529,257.185 136.363 C 258.082 138.529,266.054 145.671,270.514 148.304 C 278.994 153.310,282.810 154.252,294.200 154.156 C 299.633 154.110,303.749 153.336,307.800 151.600 C 308.827 151.160,309.966 150.791,310.333 150.780 C 313.598 150.681,325.448 140.374,329.231 134.342 C 335.671 124.075,337.579 107.843,333.526 97.800 C 333.082 96.700,332.340 94.720,331.877 93.400 C 330.197 88.606,322.428 79.197,317.220 75.648 C 309.826 70.608,296.051 67.335,286.800 68.419 M300.200 70.501 C 310.303 72.596,315.109 75.195,322.422 82.520 C 327.986 88.093,329.313 89.951,330.445 93.751 C 330.903 95.289,331.513 96.918,331.801 97.373 C 332.944 99.178,334.110 105.327,334.158 109.800 C 334.248 118.382,331.272 129.870,328.112 133.129 C 327.831 133.419,327.600 133.889,327.600 134.172 C 327.600 135.031,325.189 137.611,318.304 144.120 C 315.650 146.628,311.390 149.135,308.283 150.014 C 306.918 150.400,305.260 150.901,304.600 151.126 C 297.032 153.708,280.697 153.367,278.383 150.580 C 278.119 150.261,277.542 150.000,277.103 150.000 C 276.663 150.000,274.750 149.089,272.852 147.977 C 268.281 145.297,268.126 145.193,266.647 143.800 C 265.540 142.758,261.196 138.970,260.456 138.400 C 259.887 137.963,258.000 135.228,258.000 134.841 C 258.000 132.973,254.476 133.411,250.434 135.780 C 248.727 136.781,246.963 137.600,246.514 137.600 C 245.635 137.600,236.720 141.990,235.649 142.950 C 235.292 143.270,234.280 143.659,233.400 143.814 C 232.520 143.968,230.000 145.035,227.800 146.185 C 225.600 147.334,223.086 148.388,222.213 148.526 C 221.340 148.665,220.149 149.131,219.565 149.563 C 218.981 149.994,216.905 151.188,214.952 152.215 C 212.998 153.241,210.500 154.593,209.400 155.218 C 208.300 155.843,206.966 156.364,206.435 156.377 C 201.886 156.485,200.297 160.095,202.574 165.150 C 203.580 167.382,203.969 168.844,204.026 170.600 C 204.127 173.701,204.779 177.525,205.426 178.818 C 206.096 180.156,205.827 188.697,204.986 192.800 C 203.245 201.297,203.008 202.028,199.733 209.000 C 196.781 215.284,193.675 219.602,188.652 224.409 C 185.056 227.850,185.648 230.613,191.261 236.589 C 192.356 237.756,193.620 239.406,194.069 240.255 C 194.518 241.105,195.316 242.373,195.843 243.073 C 196.369 243.774,196.800 244.426,196.800 244.523 C 196.800 245.105,204.602 256.222,205.600 257.061 C 206.265 257.621,207.455 259.052,208.244 260.240 C 210.052 262.964,211.366 263.104,215.725 261.036 C 217.306 260.285,219.401 259.558,220.380 259.418 C 221.359 259.279,222.398 258.968,222.689 258.726 C 223.490 258.061,236.011 257.764,237.167 258.382 C 237.671 258.652,239.141 259.022,240.435 259.205 C 242.782 259.537,244.201 260.088,249.298 262.646 C 250.783 263.391,252.248 264.000,252.555 264.000 C 253.985 264.000,263.010 272.743,265.066 276.120 C 268.871 282.369,269.904 284.365,270.151 285.942 C 270.300 286.900,270.688 288.196,271.011 288.821 C 272.704 292.095,273.109 301.161,271.824 307.000 C 270.192 314.411,269.690 316.047,268.422 318.088 C 267.750 319.169,267.200 320.167,267.200 320.305 C 267.200 320.720,265.125 323.685,263.613 325.432 C 257.425 332.582,257.384 332.616,250.504 336.614 C 249.131 337.412,247.905 338.230,247.780 338.432 C 247.655 338.635,247.024 338.800,246.378 338.800 C 245.732 338.800,244.167 339.137,242.902 339.550 C 238.427 341.008,230.213 342.119,227.800 341.593 C 226.920 341.402,224.940 340.980,223.400 340.657 C 214.879 338.867,208.392 335.736,202.971 330.798 C 202.075 329.982,201.175 329.243,200.971 329.157 C 200.609 329.004,199.355 327.263,196.391 322.800 C 193.841 318.959,191.200 313.760,191.191 312.559 C 191.186 311.922,190.800 310.590,190.332 309.600 C 189.012 306.803,188.768 294.057,189.970 290.637 C 190.426 289.338,190.800 288.022,190.800 287.712 C 190.800 287.403,191.328 286.036,191.973 284.675 C 192.618 283.314,193.435 281.570,193.788 280.800 C 195.007 278.147,195.936 276.551,196.567 276.027 C 196.915 275.738,197.200 275.318,197.200 275.094 C 197.200 274.869,197.718 274.126,198.351 273.443 C 202.526 268.938,203.200 268.053,203.200 267.083 C 203.200 265.837,199.060 259.570,196.156 256.419 C 195.031 255.198,193.537 253.180,192.836 251.933 C 192.134 250.685,191.299 249.448,190.980 249.184 C 190.661 248.919,190.400 248.548,190.400 248.359 C 190.400 247.864,182.472 236.005,181.271 234.705 C 179.305 232.575,177.166 232.841,173.251 235.700 C 172.723 236.085,171.801 236.400,171.201 236.400 C 170.601 236.400,168.871 236.966,167.355 237.658 C 161.116 240.507,144.975 242.108,139.778 240.393 C 139.064 240.157,137.607 239.814,136.540 239.630 C 130.941 238.665,123.488 235.959,120.846 233.932 C 120.321 233.529,119.620 233.200,119.287 233.200 C 118.235 233.200,110.086 227.341,109.162 225.920 C 109.031 225.719,107.543 224.077,105.855 222.271 C 104.166 220.465,102.172 218.001,101.422 216.794 C 98.234 211.662,94.783 205.462,94.562 204.470 C 94.431 203.881,93.870 201.960,93.314 200.200 C 92.759 198.440,92.146 196.447,91.952 195.772 C 91.192 193.121,90.324 181.905,90.749 180.227 C 90.976 179.332,91.274 176.935,91.411 174.901 C 91.548 172.866,92.006 170.216,92.430 169.011 C 92.853 167.806,93.200 166.515,93.200 166.141 C 93.200 165.768,93.473 165.162,93.806 164.794 C 94.139 164.426,94.667 163.151,94.980 161.962 C 95.292 160.773,96.685 157.860,98.074 155.490 C 99.463 153.119,100.805 150.807,101.056 150.352 C 101.306 149.897,102.140 148.866,102.908 148.062 C 103.677 147.258,104.507 146.206,104.754 145.724 C 105.001 145.242,105.967 144.292,106.901 143.612 C 107.836 142.932,109.034 141.796,109.564 141.088 C 110.526 139.802,114.278 137.150,119.195 134.280 C 120.628 133.444,122.070 132.595,122.400 132.393 C 124.340 131.208,127.717 129.600,128.264 129.600 C 128.617 129.600,130.456 129.072,132.353 128.427 C 136.520 127.010,144.648 125.972,149.748 126.206 C 153.900 126.397,162.399 127.518,162.991 127.954 C 163.216 128.120,165.290 128.860,167.600 129.599 C 169.910 130.338,172.340 131.272,173.000 131.673 C 173.660 132.075,174.803 132.683,175.541 133.024 C 176.278 133.366,177.088 133.817,177.341 134.028 C 177.593 134.239,179.150 135.308,180.800 136.405 C 185.556 139.567,192.076 145.625,194.499 149.133 L 195.598 150.725 198.899 150.541 C 201.888 150.375,202.615 150.156,206.600 148.221 C 209.020 147.046,211.654 145.990,212.453 145.875 C 213.252 145.760,215.380 144.796,217.182 143.733 C 223.312 140.116,224.200 139.653,225.054 139.627 C 226.032 139.596,233.511 135.870,236.416 133.966 C 236.974 133.600,238.054 133.168,238.816 133.005 C 240.543 132.636,250.740 127.611,252.171 126.424 C 252.946 125.781,252.973 124.522,252.250 122.749 C 251.650 121.278,250.615 110.418,250.968 109.294 C 251.088 108.912,251.354 106.651,251.560 104.268 C 251.802 101.465,252.143 99.700,252.527 99.268 C 252.853 98.901,253.492 97.386,253.946 95.902 C 254.401 94.419,255.101 92.709,255.502 92.102 C 256.741 90.231,257.194 89.448,257.804 88.122 C 258.128 87.419,258.625 86.699,258.910 86.522 C 259.195 86.345,260.142 85.300,261.014 84.200 C 261.886 83.100,262.752 82.134,262.939 82.054 C 263.286 81.904,266.300 79.328,268.800 77.045 C 270.872 75.154,272.378 74.274,274.498 73.716 C 275.542 73.442,277.560 72.673,278.981 72.009 C 280.403 71.344,282.012 70.800,282.557 70.800 C 283.102 70.800,284.052 70.608,284.669 70.374 C 287.604 69.258,294.475 69.314,300.200 70.501 " stroke="none" fill="#5886c4" fill-rule="evenodd"></path><path id="path3" d="M298.713 59.831 C 297.985 61.430,298.701 62.162,301.241 62.416 C 302.429 62.535,304.120 63.005,305.000 63.460 C 306.292 64.128,307.092 64.249,309.156 64.091 C 310.995 63.951,311.633 64.022,311.432 64.348 C 311.052 64.963,312.114 64.924,312.749 64.300 C 313.028 64.025,313.216 63.980,313.165 64.200 C 312.721 66.129,316.812 68.799,317.789 67.217 C 317.919 67.007,318.290 66.936,318.613 67.060 C 319.405 67.364,319.376 66.234,318.571 65.429 C 318.226 65.083,317.549 64.800,317.068 64.800 C 316.586 64.800,315.968 64.440,315.693 64.000 C 315.304 63.378,314.760 63.200,313.243 63.200 C 311.630 63.200,311.257 63.062,311.084 62.400 C 310.915 61.752,310.538 61.600,309.099 61.600 C 307.832 61.600,307.117 61.371,306.600 60.800 C 306.036 60.177,305.368 60.000,303.581 60.000 C 301.910 60.000,301.223 59.837,301.055 59.400 C 300.681 58.423,299.233 58.690,298.713 59.831 M277.907 60.800 C 277.632 61.240,277.091 61.600,276.704 61.600 C 275.263 61.600,275.928 63.052,277.598 63.552 C 279.342 64.075,280.800 63.645,280.800 62.608 C 280.800 62.219,281.389 62.006,282.700 61.922 C 284.321 61.818,284.619 61.668,284.728 60.900 C 284.914 59.592,278.718 59.501,277.907 60.800 M293.083 60.796 C 293.214 61.298,293.565 61.588,293.952 61.514 C 294.909 61.329,294.739 60.220,293.731 60.076 C 293.022 59.975,292.903 60.108,293.083 60.796 M269.726 63.962 C 269.599 64.448,269.032 64.818,268.163 64.981 C 267.354 65.132,266.800 65.473,266.800 65.818 C 266.800 66.172,266.408 66.400,265.800 66.400 C 265.067 66.400,264.800 66.613,264.800 67.200 C 264.800 67.852,264.533 68.000,263.363 68.000 C 262.262 68.000,261.876 68.187,261.716 68.800 C 261.600 69.243,261.170 69.600,260.753 69.600 C 260.301 69.600,260.000 69.881,260.000 70.304 C 260.000 70.691,259.640 71.232,259.200 71.507 C 257.920 72.306,258.268 72.801,260.100 72.787 C 261.340 72.777,262.233 72.454,263.400 71.594 C 264.280 70.945,265.405 70.202,265.900 69.943 C 266.395 69.684,266.800 69.320,266.800 69.136 C 266.800 68.951,267.046 68.800,267.346 68.800 C 267.646 68.800,268.350 68.440,268.909 68.000 C 269.469 67.560,270.207 67.200,270.549 67.200 C 271.478 67.200,274.000 64.831,274.000 63.959 C 274.000 62.826,270.022 62.830,269.726 63.962 M321.300 68.276 C 321.750 68.393,322.087 69.006,322.245 69.992 C 322.562 71.974,325.747 72.773,325.518 70.812 C 325.418 69.957,325.167 69.781,323.900 69.676 C 322.725 69.579,322.400 69.384,322.400 68.776 C 322.400 68.224,322.140 68.013,321.500 68.046 C 320.823 68.081,320.773 68.138,321.300 68.276 M326.800 73.776 C 326.800 74.906,327.261 75.305,328.164 74.959 C 329.263 74.537,328.970 72.800,327.800 72.800 C 327.006 72.800,326.800 73.002,326.800 73.776 M255.200 75.172 C 255.200 75.733,254.942 76.000,254.400 76.000 C 253.960 76.000,253.215 76.385,252.744 76.856 L 251.888 77.712 252.844 78.242 C 254.984 79.428,256.823 78.388,256.938 75.926 C 256.989 74.833,256.842 74.578,256.100 74.472 C 255.415 74.375,255.200 74.542,255.200 75.172 M330.966 79.276 C 331.155 80.459,331.654 81.360,332.665 82.342 C 333.452 83.106,334.334 84.301,334.625 84.998 C 334.916 85.694,335.434 86.496,335.777 86.781 C 336.120 87.065,336.400 87.626,336.400 88.026 C 336.400 89.295,337.969 91.501,339.014 91.700 C 340.386 91.963,340.568 87.674,339.200 87.316 C 338.594 87.157,338.400 86.770,338.400 85.716 C 338.400 84.662,338.206 84.275,337.600 84.116 C 337.157 84.000,336.800 83.570,336.800 83.153 C 336.800 82.667,336.517 82.400,336.000 82.400 C 335.348 82.400,335.200 82.133,335.200 80.963 C 335.200 79.885,335.009 79.475,334.437 79.326 C 334.017 79.216,333.584 78.783,333.474 78.363 C 333.330 77.812,332.918 77.600,331.986 77.600 L 330.698 77.600 330.966 79.276 M250.400 80.800 C 250.400 82.227,250.295 82.400,249.429 82.400 C 247.630 82.400,246.830 83.694,247.786 85.058 C 248.800 86.506,250.118 85.839,251.985 82.931 C 253.823 80.068,253.722 79.200,251.551 79.200 C 250.475 79.200,250.400 79.304,250.400 80.800 M245.738 87.817 C 245.366 88.788,245.802 88.882,246.598 88.002 C 247.260 87.270,247.265 87.200,246.649 87.200 C 246.278 87.200,245.868 87.478,245.738 87.817 M244.284 90.650 C 244.128 90.806,244.000 91.512,244.000 92.220 C 244.000 93.161,243.790 93.562,243.218 93.711 C 242.538 93.889,242.420 94.330,242.318 97.058 C 242.225 99.532,242.072 100.200,241.600 100.200 C 241.117 100.200,240.975 100.957,240.871 104.100 C 240.752 107.691,240.801 108.000,241.491 108.000 C 242.801 108.000,243.200 107.148,243.200 104.353 C 243.200 102.677,243.374 101.609,243.662 101.513 C 243.919 101.427,244.187 100.304,244.266 98.979 C 244.379 97.094,244.592 96.461,245.293 95.932 C 246.566 94.969,246.638 90.663,245.384 90.483 C 244.934 90.419,244.439 90.494,244.284 90.650 M340.734 95.462 C 339.019 95.934,340.169 99.305,342.122 99.529 C 343.239 99.657,343.243 99.649,343.122 97.529 C 342.995 95.315,342.578 94.954,340.734 95.462 M341.400 101.200 C 341.031 101.798,341.545 102.400,342.424 102.400 C 342.933 102.400,343.200 102.125,343.200 101.600 C 343.200 100.752,341.861 100.454,341.400 101.200 M342.480 105.280 C 341.533 106.227,342.709 109.200,344.029 109.200 C 344.697 109.200,344.800 108.905,344.800 107.000 C 344.800 104.698,343.802 103.958,342.480 105.280 M240.800 115.171 C 240.800 120.324,240.896 121.239,241.500 121.846 C 242.168 122.517,242.206 122.511,242.324 121.704 C 242.392 121.239,242.707 120.643,243.024 120.380 C 243.740 119.786,243.762 119.032,243.080 118.466 C 242.712 118.161,242.599 117.124,242.692 114.917 C 242.870 110.707,242.578 109.200,241.582 109.200 C 240.841 109.200,240.800 109.513,240.800 115.171 M343.566 111.124 C 342.140 112.644,342.380 114.400,344.014 114.400 C 344.691 114.400,344.800 114.121,344.800 112.400 C 344.800 110.272,344.579 110.044,343.566 111.124 M343.220 116.300 C 342.539 117.125,342.038 118.070,342.106 118.400 C 342.174 118.730,341.970 119.198,341.653 119.440 C 341.245 119.751,341.098 120.599,341.151 122.348 C 341.209 124.292,341.088 124.868,340.582 125.062 C 338.730 125.773,339.177 128.800,341.134 128.800 C 342.807 128.800,343.200 128.118,343.200 125.216 C 343.200 123.026,343.332 122.510,344.000 122.093 C 344.893 121.535,345.204 116.697,344.381 116.188 C 344.094 116.011,344.109 115.750,344.430 115.364 C 344.687 115.054,344.799 114.800,344.678 114.800 C 344.557 114.800,343.901 115.475,343.220 116.300 M135.616 116.875 C 134.699 117.859,134.576 118.614,135.262 119.038 C 135.530 119.204,135.616 119.149,135.466 118.907 C 134.980 118.121,136.320 117.499,137.894 117.780 C 141.081 118.350,142.479 118.245,142.952 117.400 C 143.198 116.960,143.580 116.468,143.800 116.306 C 144.020 116.144,142.895 116.009,141.300 116.006 C 138.928 116.001,138.400 116.114,138.400 116.629 C 138.400 117.200,138.343 117.200,137.771 116.629 C 136.937 115.794,136.586 115.834,135.616 116.875 M148.400 116.757 C 148.400 117.582,149.141 118.000,150.600 118.000 C 152.059 118.000,152.800 117.582,152.800 116.757 C 152.800 116.106,152.492 116.000,150.600 116.000 C 148.708 116.000,148.400 116.106,148.400 116.757 M153.623 116.843 C 154.118 117.767,155.966 118.712,156.875 118.505 C 157.246 118.420,158.377 118.632,159.389 118.976 C 160.400 119.319,162.229 119.600,163.451 119.600 C 165.312 119.600,165.708 119.726,165.877 120.372 C 166.305 122.008,172.155 121.886,171.921 120.246 C 171.829 119.603,171.468 119.368,170.415 119.268 C 169.619 119.193,168.802 118.810,168.493 118.368 C 168.053 117.740,167.464 117.600,165.274 117.600 C 163.005 117.600,162.514 117.474,162.081 116.781 C 161.325 115.570,152.975 115.632,153.623 116.843 M129.067 117.867 C 128.055 118.879,129.768 120.221,131.319 119.631 C 133.174 118.926,132.985 117.600,131.029 117.600 C 130.096 117.600,129.213 117.720,129.067 117.867 M124.529 119.974 C 124.140 120.428,123.502 120.800,123.111 120.800 C 122.330 120.800,122.111 122.174,122.823 122.614 C 123.483 123.022,125.200 122.448,125.200 121.819 C 125.200 121.508,125.570 121.136,126.023 120.993 C 126.992 120.685,126.914 119.471,125.914 119.279 C 125.541 119.207,124.918 119.520,124.529 119.974 M121.067 121.067 C 120.606 121.527,120.775 122.000,121.400 122.000 C 121.730 122.000,122.000 121.730,122.000 121.400 C 122.000 120.775,121.527 120.606,121.067 121.067 M173.100 121.065 C 173.375 121.176,173.600 121.409,173.600 121.583 C 173.600 123.083,177.528 125.488,178.200 124.400 C 178.653 123.667,179.145 123.988,179.273 125.100 C 179.374 125.973,179.606 126.200,180.400 126.200 C 181.194 126.200,181.426 125.973,181.527 125.100 C 181.628 124.222,181.490 124.000,180.846 124.000 C 180.403 124.000,179.896 123.774,179.720 123.499 C 178.875 122.175,176.123 120.801,174.378 120.832 C 173.400 120.849,172.825 120.954,173.100 121.065 M242.516 123.600 C 242.400 124.043,241.970 124.400,241.553 124.400 C 241.139 124.400,240.800 124.670,240.800 125.000 C 240.800 125.330,240.496 125.600,240.125 125.600 C 239.552 125.600,239.580 125.722,240.308 126.400 C 241.326 127.349,242.335 127.435,242.655 126.600 C 242.782 126.270,243.141 126.000,243.453 126.000 C 244.272 126.000,244.939 124.050,244.360 123.351 C 243.694 122.550,242.757 122.676,242.516 123.600 M182.400 126.351 C 182.400 127.332,183.326 128.080,184.149 127.764 C 185.387 127.289,184.959 125.600,183.600 125.600 C 182.693 125.600,182.400 125.783,182.400 126.351 M185.200 127.826 C 185.200 130.167,190.055 134.330,191.000 132.800 C 191.534 131.935,192.000 132.476,192.000 133.960 C 192.000 135.642,194.067 137.456,195.401 136.944 C 196.279 136.607,196.199 134.049,195.300 133.714 C 194.915 133.570,194.365 133.126,194.077 132.726 C 193.776 132.307,193.056 132.000,192.377 132.000 C 191.355 132.000,191.200 131.853,191.200 130.880 C 191.200 129.472,190.543 128.800,189.167 128.800 C 188.430 128.800,188.028 128.549,187.884 128.000 C 187.619 126.985,185.200 126.828,185.200 127.826 M229.907 129.600 C 229.632 130.040,229.091 130.400,228.704 130.400 C 227.799 130.400,227.739 132.214,228.633 132.557 C 230.625 133.322,234.800 131.297,234.800 129.565 C 234.800 128.409,230.633 128.438,229.907 129.600 M338.267 131.467 C 338.120 131.613,338.000 132.057,338.000 132.453 C 338.000 132.848,337.640 133.365,337.200 133.600 C 336.636 133.902,336.400 134.438,336.400 135.414 C 336.400 136.392,336.220 136.800,335.787 136.800 C 335.070 136.800,334.437 138.256,334.706 139.285 C 335.059 140.635,338.000 139.850,338.000 138.406 C 338.000 137.984,337.685 137.456,337.300 137.232 C 336.713 136.890,336.798 136.822,337.820 136.812 C 339.569 136.795,340.000 136.144,340.000 133.520 C 340.000 131.260,339.301 130.432,338.267 131.467 M103.200 132.800 C 103.200 133.410,102.933 133.600,102.080 133.600 C 100.747 133.600,100.000 134.247,100.000 135.401 C 100.000 136.446,102.481 136.675,103.900 135.761 C 105.146 134.959,105.225 132.000,104.000 132.000 C 103.467 132.000,103.200 132.267,103.200 132.800 M216.916 136.000 C 216.786 136.496,216.344 136.819,215.753 136.850 C 215.229 136.878,214.592 136.922,214.338 136.950 C 213.657 137.024,213.571 138.414,214.232 138.668 C 214.544 138.787,214.800 139.136,214.800 139.443 C 214.800 139.749,214.980 140.000,215.200 140.000 C 215.420 140.000,215.600 139.828,215.600 139.618 C 215.600 139.408,216.265 139.112,217.077 138.959 C 221.288 138.169,222.936 135.200,219.163 135.200 C 217.462 135.200,217.091 135.332,216.916 136.000 M98.400 137.555 C 98.400 138.102,98.013 138.384,97.000 138.574 C 96.230 138.718,95.598 138.963,95.595 139.118 C 95.592 139.273,95.481 139.805,95.348 140.300 C 95.076 141.316,97.264 141.622,98.826 140.786 C 99.623 140.359,99.930 138.400,99.200 138.400 C 98.509 138.400,98.766 137.268,99.500 137.076 C 100.027 136.938,99.977 136.881,99.300 136.846 C 98.668 136.814,98.400 137.025,98.400 137.555 M197.600 139.166 C 197.600 140.943,200.596 144.317,201.772 143.866 C 202.092 143.743,202.405 143.977,202.523 144.428 C 202.974 146.151,207.616 144.478,208.368 142.321 C 209.090 140.250,207.041 138.984,205.907 140.800 C 205.632 141.240,205.091 141.600,204.704 141.600 C 204.317 141.600,203.640 141.960,203.200 142.400 L 202.400 143.200 202.400 142.400 C 202.400 141.875,202.133 141.600,201.624 141.600 C 201.016 141.600,200.821 141.275,200.724 140.100 C 200.576 138.307,197.600 137.417,197.600 139.166 M249.918 140.700 C 248.552 142.279,248.735 143.200,250.413 143.200 C 251.902 143.200,251.956 143.248,252.076 144.700 C 252.197 146.163,252.240 146.200,253.800 146.200 C 256.117 146.200,256.122 145.107,253.816 142.596 C 252.817 141.508,252.000 140.479,252.000 140.309 C 252.000 139.724,250.523 140.001,249.918 140.700 M331.738 141.701 C 331.456 142.157,332.645 143.200,333.448 143.200 C 333.974 143.200,335.202 142.127,335.198 141.671 C 335.194 141.221,332.018 141.248,331.738 141.701 M93.600 143.200 C 93.600 144.627,93.495 144.800,92.629 144.800 C 91.329 144.800,90.288 145.901,90.506 147.043 C 90.639 147.740,90.480 147.989,89.841 148.080 C 88.596 148.258,88.319 152.800,89.553 152.800 C 90.025 152.800,90.461 152.435,90.630 151.900 C 90.787 151.405,91.249 150.765,91.657 150.477 C 92.066 150.190,92.400 149.599,92.400 149.165 C 92.400 148.730,92.657 148.276,92.972 148.155 C 93.287 148.035,93.727 147.410,93.951 146.768 C 94.175 146.126,94.641 145.600,94.986 145.600 C 95.758 145.600,97.004 143.109,96.669 142.236 C 96.069 140.671,93.600 141.446,93.600 143.200 M329.700 144.088 C 328.707 144.567,328.506 145.923,329.300 146.779 C 329.700 147.210,329.700 147.261,329.300 147.035 C 328.993 146.862,328.800 146.994,328.800 147.376 C 328.800 147.733,329.142 148.000,329.600 148.000 C 330.133 148.000,330.400 147.733,330.400 147.200 C 330.400 146.667,330.667 146.400,331.200 146.400 C 331.717 146.400,332.000 146.133,332.000 145.647 C 332.000 145.230,332.357 144.800,332.800 144.684 C 333.240 144.569,333.600 144.272,333.600 144.023 C 333.600 143.701,333.379 143.690,332.824 143.987 C 332.308 144.263,331.966 144.268,331.801 144.001 C 331.492 143.502,330.862 143.528,329.700 144.088 M239.013 145.361 C 236.921 147.393,237.111 148.000,239.837 148.000 C 241.738 148.000,242.106 147.880,242.284 147.200 C 242.399 146.760,242.822 146.400,243.223 146.400 C 244.128 146.400,244.342 146.031,244.037 145.000 C 243.594 143.505,240.711 143.712,239.013 145.361 M256.800 148.920 C 256.800 150.520,257.406 151.200,258.833 151.200 C 259.570 151.200,259.972 151.451,260.116 152.000 C 260.231 152.440,260.591 152.800,260.916 152.800 C 261.241 152.800,261.601 153.160,261.716 153.600 C 261.857 154.140,262.262 154.400,262.959 154.400 C 263.560 154.400,264.203 154.735,264.493 155.200 C 264.768 155.640,265.288 156.000,265.650 156.000 C 266.011 156.000,266.401 156.360,266.516 156.800 C 266.793 157.858,270.167 157.983,270.564 156.949 C 270.915 156.036,270.094 155.200,268.847 155.200 C 268.226 155.200,267.587 154.871,267.293 154.400 C 266.733 153.504,265.606 153.354,264.880 154.080 C 264.507 154.453,264.400 154.404,264.400 153.860 C 264.400 152.022,263.231 150.758,261.782 151.030 C 260.569 151.257,260.400 151.188,260.400 150.465 C 260.400 149.358,258.715 147.600,257.654 147.600 C 256.955 147.600,256.800 147.839,256.800 148.920 M323.444 149.900 C 321.924 151.121,321.620 151.574,321.806 152.338 C 321.932 152.854,321.825 153.529,321.568 153.838 C 321.184 154.301,321.329 154.400,322.388 154.400 C 323.338 154.400,323.730 154.191,323.884 153.600 C 324.000 153.157,324.430 152.800,324.847 152.800 C 325.333 152.800,325.600 152.517,325.600 152.000 C 325.600 151.467,325.867 151.200,326.400 151.200 C 327.260 151.200,328.800 149.886,328.800 149.153 C 328.800 148.904,328.447 148.799,328.000 148.916 C 327.561 149.031,327.100 148.962,326.977 148.762 C 326.525 148.031,325.265 148.437,323.444 149.900 M229.429 149.952 C 229.312 150.142,228.668 150.406,227.997 150.541 C 226.445 150.851,224.000 152.784,224.000 153.700 C 224.000 154.786,227.593 154.713,227.878 153.622 C 228.024 153.063,228.493 152.809,229.538 152.722 C 230.576 152.635,231.033 152.389,231.133 151.864 C 231.284 151.069,229.781 149.384,229.429 149.952 M319.120 154.323 C 318.043 154.412,317.568 154.669,317.379 155.265 C 317.168 155.932,316.896 156.039,315.914 155.843 C 314.074 155.475,311.028 157.013,310.454 158.601 C 309.824 160.342,309.848 160.400,311.200 160.400 C 312.000 160.400,312.400 160.200,312.400 159.800 C 312.400 159.364,312.849 159.200,314.037 159.200 C 315.338 159.200,315.718 159.036,315.884 158.400 C 316.000 157.957,316.430 157.600,316.847 157.600 C 317.333 157.600,317.600 157.317,317.600 156.800 C 317.600 155.985,317.903 155.855,319.501 155.985 C 320.345 156.053,321.047 155.217,320.738 154.513 C 320.662 154.341,319.934 154.255,319.120 154.323 M212.595 157.769 C 211.999 158.322,211.171 158.882,210.755 159.014 C 209.508 159.410,209.716 161.600,211.000 161.600 C 211.550 161.600,212.000 161.420,212.000 161.200 C 212.000 160.980,212.647 160.800,213.437 160.800 C 214.525 160.800,214.924 160.611,215.078 160.022 C 215.213 159.508,215.693 159.203,216.495 159.122 C 217.253 159.046,217.952 158.630,218.355 158.017 C 218.710 157.476,218.787 157.164,218.528 157.324 C 218.268 157.483,217.962 157.463,217.849 157.279 C 217.315 156.415,213.691 156.754,212.595 157.769 M272.958 157.766 C 272.135 159.910,272.854 160.594,276.058 160.716 C 278.704 160.817,279.143 160.937,279.320 161.616 C 279.493 162.278,279.877 162.400,281.779 162.400 C 283.434 162.400,284.331 162.621,285.158 163.232 C 286.953 164.559,288.618 164.171,288.535 162.445 C 288.447 160.606,287.854 160.323,284.683 160.608 C 282.126 160.837,279.600 160.305,279.600 159.538 C 279.600 159.391,278.896 159.151,278.036 159.006 C 277.175 158.861,276.157 158.395,275.774 157.971 C 274.959 157.071,273.272 156.948,272.958 157.766 M304.700 160.168 C 303.206 162.055,303.307 162.400,305.351 162.400 C 307.514 162.400,308.307 161.635,307.761 160.076 C 307.205 158.489,306.001 158.526,304.700 160.168 M84.230 159.552 C 83.708 160.396,84.091 164.022,84.652 163.557 C 84.954 163.307,85.207 163.259,85.216 163.451 C 85.224 163.643,85.486 163.215,85.796 162.500 C 86.107 161.785,86.550 161.200,86.781 161.200 C 87.011 161.200,87.200 160.936,87.200 160.614 C 87.200 159.589,84.748 158.713,84.230 159.552 M295.924 161.407 L 295.466 162.413 294.537 161.541 C 293.629 160.688,293.590 160.685,292.787 161.412 C 291.047 162.986,291.869 163.800,295.200 163.800 L 298.200 163.800 298.087 162.416 C 297.915 160.309,296.686 159.736,295.924 161.407 M298.956 160.971 C 298.835 161.285,298.796 161.960,298.868 162.471 C 299.026 163.584,300.670 164.005,301.045 163.028 C 301.177 162.683,301.596 162.400,301.976 162.400 C 302.974 162.400,303.228 162.000,302.772 161.147 C 302.273 160.216,299.298 160.078,298.956 160.971 M211.581 163.283 C 210.985 164.589,211.701 166.400,212.812 166.400 C 213.555 166.400,213.631 166.197,213.522 164.504 C 213.381 162.316,212.324 161.651,211.581 163.283 M289.600 162.800 C 289.600 163.020,289.960 163.200,290.400 163.200 C 290.840 163.200,291.200 163.020,291.200 162.800 C 291.200 162.580,290.840 162.400,290.400 162.400 C 289.960 162.400,289.600 162.580,289.600 162.800 M83.026 165.172 C 82.611 165.630,82.359 166.092,82.465 166.198 C 82.812 166.545,84.115 165.344,83.945 164.834 C 83.833 164.498,83.537 164.607,83.026 165.172 M82.400 168.800 C 82.400 169.020,82.760 169.200,83.200 169.200 C 83.640 169.200,84.000 169.020,84.000 168.800 C 84.000 168.580,83.640 168.400,83.200 168.400 C 82.760 168.400,82.400 168.580,82.400 168.800 M213.029 169.568 C 212.365 170.302,212.359 170.416,212.954 171.011 C 213.706 171.763,213.755 172.341,213.190 173.827 C 212.660 175.219,213.045 176.400,214.027 176.400 C 215.042 176.400,215.023 177.048,214.000 177.316 C 213.508 177.445,213.200 177.862,213.200 178.400 C 213.200 178.938,213.508 179.355,214.000 179.484 C 214.919 179.724,215.084 180.400,214.224 180.400 C 212.896 180.400,212.973 182.943,214.311 183.293 C 216.250 183.800,217.741 181.501,216.365 180.125 C 216.052 179.812,216.052 179.615,216.365 179.422 C 217.073 178.984,216.862 177.689,215.982 177.072 C 215.293 176.590,215.262 176.462,215.782 176.262 C 216.582 175.955,216.580 174.541,215.780 174.093 C 215.345 173.849,215.136 173.038,215.080 171.378 C 214.991 168.742,214.316 168.146,213.029 169.568 M81.300 172.265 C 80.264 172.683,80.645 178.078,81.700 177.928 C 82.473 177.818,82.634 177.490,82.838 175.600 C 83.151 172.711,82.687 171.705,81.300 172.265 M80.000 181.000 C 79.339 181.797,80.131 182.800,81.422 182.800 C 82.367 182.800,83.085 181.585,82.602 180.804 C 82.226 180.194,80.565 180.320,80.000 181.000 M215.333 184.800 C 215.333 185.533,215.541 186.000,215.867 186.000 C 216.193 186.000,216.400 185.533,216.400 184.800 C 216.400 184.067,216.193 183.600,215.867 183.600 C 215.541 183.600,215.333 184.067,215.333 184.800 M80.827 189.485 C 80.786 192.035,80.932 193.877,81.200 194.200 C 81.503 194.566,81.509 194.809,81.219 194.988 C 79.789 195.872,81.397 197.868,83.087 197.304 C 84.476 196.841,84.621 195.460,83.300 195.272 C 82.344 195.136,81.966 193.115,82.800 192.600 C 83.334 192.270,83.310 190.670,82.763 190.123 C 82.447 189.807,82.456 189.443,82.796 188.807 C 83.384 187.709,82.693 185.770,81.614 185.488 C 80.958 185.316,80.888 185.668,80.827 189.485 M214.319 186.665 C 212.882 187.058,212.994 190.400,214.443 190.400 C 214.860 190.400,215.200 190.241,215.200 190.047 C 215.200 189.852,215.572 189.596,216.028 189.477 C 216.692 189.303,216.830 188.998,216.728 187.930 C 216.597 186.570,215.936 186.223,214.319 186.665 M213.300 196.440 C 210.443 198.464,210.903 203.393,213.826 202.061 C 214.948 201.550,215.140 200.105,214.136 199.720 C 213.570 199.503,213.603 199.417,214.352 199.139 C 215.109 198.859,215.217 198.559,215.116 197.007 C 215.052 196.014,215.000 195.209,215.000 195.218 C 215.000 195.228,214.235 195.778,213.300 196.440 M82.478 200.728 C 82.610 202.311,83.693 202.978,84.159 201.763 C 84.542 200.766,84.085 199.716,83.164 199.475 C 82.447 199.287,82.369 199.429,82.478 200.728 M84.000 206.437 C 84.000 208.138,84.132 208.509,84.800 208.684 C 85.240 208.799,85.600 209.221,85.600 209.622 C 85.600 210.709,87.173 210.448,87.457 209.314 C 87.931 207.425,86.278 204.400,84.771 204.400 C 84.111 204.400,84.000 204.692,84.000 206.437 M211.200 206.689 C 208.889 207.561,207.483 211.642,209.400 211.913 C 210.401 212.054,211.479 210.519,210.833 209.873 C 210.200 209.240,210.299 208.920,211.200 208.684 C 211.741 208.543,212.000 208.138,212.000 207.437 C 212.000 206.867,211.955 206.414,211.900 206.432 C 211.845 206.449,211.530 206.565,211.200 206.689 M206.253 214.097 C 205.407 214.906,205.156 215.459,205.299 216.203 C 205.454 217.019,205.303 217.259,204.508 217.459 C 203.662 217.671,203.547 217.894,203.682 219.053 C 203.805 220.109,203.695 220.400,203.169 220.400 C 202.204 220.400,201.491 221.427,201.794 222.381 C 202.330 224.070,205.200 223.228,205.200 221.381 C 205.200 220.311,205.373 220.031,206.100 219.928 C 206.818 219.826,207.025 219.504,207.122 218.341 C 207.209 217.293,207.463 216.825,208.022 216.678 C 208.648 216.515,208.800 216.122,208.800 214.662 C 208.800 212.504,208.085 212.345,206.253 214.097 M198.998 224.804 C 198.861 225.026,198.862 225.566,199.001 226.004 C 199.203 226.641,199.068 226.803,198.327 226.813 C 196.436 226.839,194.645 229.119,195.313 230.652 C 195.907 232.015,199.200 230.301,199.200 228.628 C 199.200 228.334,199.560 227.999,200.000 227.884 C 200.479 227.759,200.800 227.338,200.800 226.837 C 200.800 226.360,201.058 226.000,201.400 226.000 C 202.342 226.000,202.101 224.920,201.100 224.652 C 199.809 224.306,199.282 224.344,198.998 224.804 M97.067 226.267 C 96.413 226.920,96.803 229.276,97.600 229.484 C 98.043 229.600,98.400 230.030,98.400 230.447 C 98.400 231.054,98.699 231.200,99.945 231.200 C 101.526 231.200,101.581 231.111,101.251 229.087 C 101.042 227.805,97.748 225.585,97.067 226.267 M101.672 233.300 C 101.851 234.556,104.800 234.902,104.800 233.667 C 104.800 232.809,104.069 232.400,102.539 232.400 C 101.736 232.400,101.569 232.574,101.672 233.300 M106.900 235.465 C 105.931 235.856,106.305 237.600,107.357 237.600 C 108.461 237.600,109.026 236.554,108.358 235.749 C 107.878 235.171,107.709 235.138,106.900 235.465 M198.672 239.471 C 198.909 241.411,199.108 241.788,200.825 243.549 C 201.388 244.127,201.967 244.915,202.112 245.300 C 202.257 245.685,202.631 246.000,202.944 246.000 C 203.257 246.000,203.622 246.433,203.755 246.963 C 203.936 247.686,204.196 247.874,204.798 247.716 C 205.963 247.412,205.965 244.420,204.800 244.116 C 204.357 244.000,204.000 243.570,204.000 243.153 C 204.000 242.667,203.717 242.400,203.200 242.400 C 202.548 242.400,202.400 242.133,202.400 240.963 C 202.400 239.885,202.209 239.475,201.637 239.326 C 201.217 239.216,200.784 238.783,200.674 238.363 C 200.179 236.470,198.423 237.441,198.672 239.471 M113.280 240.080 C 112.249 241.111,113.060 243.600,114.427 243.600 C 114.866 243.600,115.340 243.301,115.480 242.936 C 115.698 242.367,115.781 242.396,116.055 243.136 C 116.467 244.251,118.400 244.365,118.400 243.275 C 118.400 241.494,114.376 238.984,113.280 240.080 M176.356 242.654 C 176.106 242.954,175.429 243.203,174.851 243.206 C 173.418 243.214,173.049 243.537,172.306 245.424 L 171.667 247.048 173.266 247.142 C 174.584 247.220,174.903 247.092,175.079 246.418 C 175.243 245.792,175.619 245.600,176.684 245.600 C 177.738 245.600,178.125 245.406,178.284 244.800 C 178.400 244.357,178.830 244.000,179.247 244.000 C 179.733 244.000,180.000 244.283,180.000 244.800 C 180.000 245.333,180.267 245.600,180.800 245.600 C 181.452 245.600,181.600 245.867,181.600 247.037 C 181.600 248.138,181.787 248.524,182.400 248.684 C 182.840 248.799,183.200 249.189,183.200 249.550 C 183.200 249.912,183.560 250.432,184.000 250.707 C 184.465 250.997,184.800 251.640,184.800 252.241 C 184.800 252.922,185.061 253.343,185.563 253.474 C 185.983 253.584,186.416 254.017,186.526 254.437 C 186.965 256.115,188.600 255.376,188.600 253.499 C 188.600 251.653,188.040 250.605,185.314 247.357 C 184.371 246.233,183.600 245.118,183.600 244.880 C 183.600 244.641,183.268 244.210,182.863 243.923 C 182.458 243.635,182.041 243.139,181.936 242.819 C 181.674 242.018,176.998 241.879,176.356 242.654 M121.024 244.682 C 120.713 245.493,122.391 247.200,123.501 247.200 C 123.980 247.200,123.786 246.797,122.778 245.704 C 122.020 244.882,121.377 244.154,121.349 244.087 C 121.322 244.020,121.175 244.288,121.024 244.682 M126.341 245.484 C 124.016 246.044,125.470 248.800,128.091 248.800 C 129.774 248.800,130.310 248.964,130.707 249.600 C 131.127 250.272,131.640 250.400,133.914 250.400 C 136.127 250.400,136.747 250.546,137.307 251.200 C 138.175 252.213,138.577 252.205,139.555 251.156 C 141.063 249.537,139.637 248.001,136.624 247.997 C 135.277 247.996,134.198 247.729,133.400 247.200 C 132.674 246.719,131.523 246.404,130.486 246.403 C 129.543 246.401,128.373 246.158,127.886 245.863 C 127.399 245.568,126.703 245.397,126.341 245.484 M164.880 246.880 C 163.815 247.945,164.289 250.000,165.600 250.000 C 166.400 250.000,166.800 249.800,166.800 249.400 C 166.800 249.042,167.168 248.800,167.711 248.800 C 168.212 248.800,168.907 248.467,169.256 248.060 C 170.304 246.836,166.067 245.693,164.880 246.880 M223.621 247.774 C 223.143 248.351,223.674 249.824,224.597 250.483 C 225.036 250.797,226.805 250.474,227.347 249.981 C 227.538 249.808,228.266 249.758,228.966 249.872 C 229.839 250.014,230.403 249.878,230.768 249.439 C 231.544 248.504,232.776 248.657,233.857 249.824 C 234.762 250.800,242.422 251.031,245.145 250.164 C 246.611 249.698,244.684 248.889,242.178 248.919 C 239.963 248.945,239.493 248.825,238.985 248.100 C 238.224 247.014,224.494 246.723,223.621 247.774 M160.089 248.223 C 158.345 249.445,158.925 250.400,161.413 250.400 C 164.019 250.400,164.746 249.571,163.222 248.338 C 162.110 247.437,161.256 247.405,160.089 248.223 M156.667 248.667 C 155.913 249.420,156.441 250.400,157.600 250.400 C 158.613 250.400,158.800 250.244,158.800 249.400 C 158.800 248.420,157.396 247.937,156.667 248.667 M154.117 249.500 C 153.975 249.885,153.687 250.315,153.478 250.455 C 152.915 250.833,153.533 251.600,154.400 251.600 C 155.481 251.600,155.782 250.864,155.038 250.042 C 154.686 249.653,154.519 249.215,154.666 249.068 C 154.813 248.920,154.808 248.800,154.654 248.800 C 154.501 248.800,154.259 249.115,154.117 249.500 M215.316 249.600 C 215.201 250.040,214.845 250.400,214.526 250.400 C 214.152 250.400,213.990 250.721,214.072 251.300 C 214.259 252.617,217.070 252.832,217.999 251.601 C 218.402 251.067,219.264 250.662,220.289 250.524 C 223.808 250.052,222.818 248.800,218.925 248.800 C 215.862 248.800,215.504 248.879,215.316 249.600 M149.122 250.057 C 148.429 250.311,148.124 250.656,148.265 251.026 C 148.553 251.775,148.038 251.758,147.189 250.990 C 145.898 249.821,142.858 250.132,143.338 251.383 C 143.646 252.186,145.945 252.208,146.251 251.410 C 146.451 250.891,146.548 250.891,147.067 251.410 C 147.790 252.132,151.627 252.213,152.320 251.520 C 153.013 250.827,152.924 250.585,151.781 250.064 C 150.609 249.530,150.564 249.530,149.122 250.057 M244.929 251.040 C 244.638 251.800,245.427 252.385,246.754 252.394 C 247.279 252.397,248.125 252.850,248.635 253.400 C 249.618 254.461,251.132 254.708,251.907 253.933 C 252.381 253.459,252.381 253.459,252.987 255.400 C 253.220 256.143,254.166 256.177,254.875 255.468 C 255.571 254.772,256.400 255.068,256.400 256.013 C 256.400 258.413,261.262 260.202,261.527 257.900 C 261.626 257.033,261.488 256.800,260.873 256.800 C 260.430 256.800,260.003 256.455,259.884 256.000 C 259.718 255.364,259.338 255.200,258.037 255.200 C 256.849 255.200,256.400 255.036,256.400 254.600 C 256.400 254.270,256.161 254.000,255.870 254.000 C 255.578 254.000,254.917 253.550,254.400 253.000 C 253.883 252.450,253.172 252.000,252.819 252.000 C 252.466 252.000,251.870 251.640,251.493 251.200 C 250.578 250.132,245.327 250.004,244.929 251.040 M262.238 259.832 C 262.469 261.694,262.663 262.000,263.610 262.000 C 265.605 262.000,265.324 258.674,263.312 258.477 C 262.079 258.356,262.058 258.382,262.238 259.832 M191.829 263.829 C 191.483 264.174,191.200 264.873,191.200 265.382 C 191.200 265.970,190.909 266.383,190.400 266.516 C 189.330 266.796,189.307 268.400,190.373 268.400 C 190.798 268.400,191.259 268.044,191.397 267.609 C 191.548 267.133,192.273 266.631,193.217 266.348 C 194.907 265.841,195.580 264.739,194.784 263.781 C 194.149 263.016,192.617 263.041,191.829 263.829 M266.608 264.074 C 267.239 266.172,267.835 267.000,268.617 266.863 C 269.048 266.788,269.787 266.698,270.261 266.663 C 271.127 266.600,270.891 265.200,270.014 265.200 C 269.817 265.200,269.598 264.795,269.528 264.300 C 269.425 263.573,269.105 263.376,267.865 263.274 C 266.425 263.155,266.347 263.205,266.608 264.074 M186.526 271.963 C 186.416 272.383,185.983 272.816,185.563 272.926 C 184.969 273.081,184.800 273.488,184.800 274.763 C 184.800 275.911,184.630 276.400,184.232 276.400 C 183.916 276.400,183.537 276.977,183.378 277.700 C 183.221 278.415,182.758 279.234,182.349 279.521 C 181.758 279.935,181.617 280.510,181.663 282.321 C 181.695 283.574,181.806 284.353,181.910 284.050 C 182.197 283.218,183.529 282.000,184.151 282.000 C 185.102 282.000,185.688 280.909,185.411 279.651 C 185.202 278.698,185.303 278.421,185.934 278.221 C 186.767 277.956,187.403 275.795,186.976 274.681 C 186.811 274.252,187.127 273.852,187.974 273.413 C 189.030 272.867,189.151 272.656,188.793 271.986 C 188.251 270.975,186.788 270.960,186.526 271.963 M277.467 279.467 C 276.146 280.788,277.753 284.438,280.030 285.287 C 281.200 285.723,281.172 281.839,280.000 281.107 C 279.560 280.832,279.200 280.291,279.200 279.904 C 279.200 279.213,278.018 278.915,277.467 279.467 M280.516 287.644 C 280.181 287.979,280.178 288.353,280.507 289.075 C 280.837 289.798,280.830 290.508,280.482 291.809 C 279.779 294.438,280.478 295.359,282.567 294.557 C 283.255 294.293,283.452 292.800,282.800 292.800 C 282.580 292.800,282.400 292.260,282.400 291.600 C 282.400 290.940,282.218 290.400,281.997 290.400 C 281.758 290.400,281.797 290.073,282.094 289.599 C 282.892 288.320,281.529 286.631,280.516 287.644 M178.877 292.508 C 178.617 292.820,178.446 295.828,178.431 300.322 C 178.404 308.383,178.476 308.602,180.764 307.419 C 182.204 306.674,182.175 306.793,181.386 304.905 C 181.049 304.097,180.874 302.975,180.998 302.410 C 181.132 301.799,180.981 301.065,180.624 300.592 C 179.844 299.560,179.841 298.230,180.618 297.585 C 181.028 297.245,181.156 296.712,181.000 296.000 C 180.844 295.288,180.972 294.755,181.382 294.415 C 182.299 293.654,182.133 292.831,180.974 292.390 C 179.640 291.883,179.383 291.897,178.877 292.508 M280.416 295.971 C 279.931 296.876,280.261 298.000,281.010 298.000 C 281.299 298.000,281.796 298.100,282.116 298.223 C 282.693 298.444,284.000 297.457,284.000 296.800 C 284.000 295.350,281.106 294.681,280.416 295.971 M281.500 301.916 C 281.025 302.013,280.800 302.435,280.800 303.229 C 280.800 304.412,281.265 304.657,282.567 304.157 C 283.864 303.660,282.898 301.631,281.500 301.916 M280.200 309.282 C 278.565 311.892,278.334 312.482,278.572 313.429 C 278.768 314.210,279.072 314.400,280.128 314.400 C 282.030 314.400,282.400 313.801,282.400 310.720 C 282.400 307.558,281.606 307.038,280.200 309.282 M180.000 310.800 C 180.000 312.496,180.115 312.800,180.757 312.800 C 181.964 312.800,182.511 310.271,181.520 309.280 C 180.498 308.258,180.000 308.756,180.000 310.800 M181.681 316.496 C 181.783 318.626,181.917 319.014,182.600 319.139 C 183.040 319.220,183.270 319.152,183.111 318.987 C 182.951 318.823,183.115 318.190,183.475 317.581 C 184.293 316.195,183.593 314.000,182.332 314.000 C 181.641 314.000,181.574 314.257,181.681 316.496 M277.966 317.767 C 277.948 317.785,277.709 318.844,277.435 320.120 L 276.937 322.440 277.968 322.320 C 278.929 322.208,279.005 322.046,279.078 319.967 C 279.144 318.046,278.657 317.080,277.966 317.767 M184.800 324.520 C 184.800 327.429,186.897 328.420,187.336 325.718 C 187.604 324.066,186.824 322.800,185.538 322.800 C 184.935 322.800,184.800 323.115,184.800 324.520 M276.183 323.546 C 276.380 324.169,276.252 324.261,275.412 324.100 C 274.303 323.888,272.837 325.237,272.813 326.491 C 272.806 326.871,272.339 327.483,271.776 327.852 C 270.979 328.375,270.780 328.797,270.876 329.762 C 270.980 330.796,270.847 331.022,270.075 331.131 C 269.065 331.274,267.626 333.283,267.777 334.338 C 268.036 336.150,271.200 334.887,271.200 332.971 C 271.200 332.349,271.429 332.000,271.837 332.000 C 272.188 332.000,272.565 331.657,272.674 331.237 C 272.784 330.817,273.217 330.384,273.637 330.274 C 274.209 330.125,274.400 329.715,274.400 328.637 C 274.400 327.467,274.548 327.200,275.200 327.200 C 275.787 327.200,276.000 326.933,276.000 326.200 C 276.000 325.578,276.227 325.200,276.600 325.200 C 277.000 325.200,277.200 324.800,277.200 324.000 C 277.200 323.177,277.003 322.800,276.573 322.800 C 276.143 322.800,276.021 323.035,276.183 323.546 M187.500 327.476 C 186.090 327.844,186.602 329.927,188.174 330.222 C 189.839 330.534,190.400 330.240,190.400 329.056 C 190.400 327.493,189.438 326.969,187.500 327.476 M191.200 333.200 C 191.200 333.947,191.389 334.362,191.700 334.300 C 191.975 334.245,192.155 334.425,192.100 334.700 C 192.045 334.975,192.180 335.200,192.400 335.200 C 192.620 335.200,192.800 335.560,192.800 336.000 C 192.800 336.517,193.067 336.800,193.553 336.800 C 193.970 336.800,194.400 337.157,194.516 337.600 C 194.661 338.153,195.062 338.400,195.815 338.400 C 198.106 338.400,196.245 333.840,193.613 333.004 C 193.166 332.862,192.800 332.578,192.800 332.373 C 192.800 332.168,192.440 332.000,192.000 332.000 C 191.378 332.000,191.200 332.267,191.200 333.200 M264.177 336.298 C 263.538 336.755,262.687 339.094,262.985 339.576 C 263.382 340.218,265.059 340.083,265.793 339.350 C 267.245 337.898,265.788 335.146,264.177 336.298 M197.758 338.566 C 197.175 340.084,197.771 341.397,199.100 341.525 C 200.553 341.665,200.660 341.377,199.920 339.328 C 199.418 337.942,198.167 337.500,197.758 338.566 M200.800 342.200 C 200.800 343.034,200.990 343.200,201.945 343.200 C 202.950 343.200,203.066 343.078,202.898 342.200 C 202.758 341.467,202.453 341.200,201.753 341.200 C 201.003 341.200,200.800 341.413,200.800 342.200 M204.500 342.665 C 203.503 343.067,203.909 344.800,205.000 344.800 C 205.550 344.800,205.955 344.997,205.900 345.237 C 205.845 345.478,206.144 345.883,206.565 346.137 C 206.986 346.392,207.661 346.915,208.065 347.300 C 208.501 347.715,209.411 347.998,210.300 347.994 C 211.125 347.991,211.601 347.856,211.358 347.694 C 211.115 347.532,210.695 346.724,210.426 345.897 C 209.841 344.104,208.761 343.379,207.600 344.000 C 206.965 344.340,206.800 344.304,206.800 343.828 C 206.800 343.334,205.582 342.318,205.126 342.432 C 205.057 342.449,204.775 342.554,204.500 342.665 M249.729 345.506 C 247.912 345.803,247.036 348.892,248.702 349.128 C 249.243 349.205,249.700 349.005,249.845 348.628 C 249.977 348.283,250.516 348.000,251.043 348.000 C 251.733 348.000,252.000 347.777,252.000 347.200 C 252.000 346.760,252.013 346.274,252.030 346.120 C 252.074 345.703,250.724 345.343,249.729 345.506 M212.604 346.653 C 211.179 348.078,211.977 349.387,214.354 349.523 C 215.920 349.612,216.685 349.863,217.154 350.441 C 217.896 351.355,224.388 351.446,224.686 350.546 C 224.951 349.744,223.584 348.800,222.157 348.800 C 221.395 348.800,220.373 348.547,219.886 348.238 C 219.399 347.930,218.190 347.548,217.200 347.391 C 216.210 347.234,214.917 346.858,214.326 346.556 C 213.389 346.076,213.168 346.089,212.604 346.653 M243.214 347.894 C 242.892 348.020,242.334 348.487,241.974 348.931 C 241.372 349.675,241.180 349.698,239.507 349.230 C 238.111 348.839,237.492 348.830,236.821 349.189 C 236.162 349.541,235.813 349.543,235.394 349.195 C 234.471 348.429,233.307 349.095,233.090 350.513 C 232.763 352.657,234.613 353.729,235.683 352.016 C 236.136 351.291,236.226 351.281,236.886 351.878 C 237.544 352.473,237.658 352.472,238.331 351.862 C 238.734 351.498,239.454 351.200,239.931 351.200 C 240.409 351.200,240.800 350.984,240.800 350.720 C 240.800 350.347,240.907 350.347,241.280 350.720 C 242.053 351.493,243.132 351.275,243.835 350.203 C 244.194 349.655,244.648 349.306,244.844 349.427 C 245.040 349.548,245.200 349.296,245.200 348.866 C 245.200 348.264,244.299 347.429,243.867 347.632 C 243.830 347.649,243.536 347.767,243.214 347.894 M227.344 350.590 C 226.774 351.819,227.613 352.820,228.556 352.036 C 229.080 351.602,228.623 349.606,228.000 349.606 C 227.890 349.606,227.595 350.049,227.344 350.590 " stroke="none" fill="#8c8c8c" fill-rule="evenodd"></path></g></svg>